<?xml version="1.0" standalone="no"?>
<!DOCTYPE svg PUBLIC "-//W3C//DTD SVG 20010904//EN"
 "http://www.w3.org/TR/2001/REC-SVG-20010904/DTD/svg10.dtd">
<svg version="1.0" xmlns="http://www.w3.org/2000/svg"
 width="374.000000pt" height="278.000000pt" viewBox="0 0 374.000000 278.000000"
 preserveAspectRatio="xMidYMid meet">

<g transform="translate(0.000000,278.000000) scale(0.100000,-0.100000)"
fill="#000000" stroke="none">
<path d="M2000 2619 c-430 -47 -784 -292 -974 -674 -102 -203 -138 -359 -138
-585 0 -175 19 -287 59 -344 l28 -38 135 -2 c111 -1 142 -5 173 -21 73 -37 38
-73 -93 -95 -83 -15 -354 -19 -366 -7 -5 4 -2 18 5 30 l14 22 -23 -20 c-54
-48 -44 -97 29 -145 61 -41 130 -60 215 -60 129 0 257 44 303 104 l18 24 111
-18 c178 -30 324 -40 564 -40 419 0 750 50 980 149 179 77 259 162 295 313 68
291 -90 719 -381 1028 -263 279 -609 416 -954 379z m-355 -498 c77 -34 126
-116 145 -238 14 -86 1 -145 -35 -169 -74 -48 -382 -9 -461 59 -38 33 -35 99
6 183 35 71 118 154 171 171 53 17 130 14 174 -6z m1130 -5 c108 -50 205 -217
181 -311 -17 -67 -320 -139 -442 -106 -66 18 -79 40 -79 135 0 97 14 148 58
212 64 92 175 120 282 70z m-205 -627 c-48 -41 -161 -95 -245 -115 -96 -24
-306 -24 -395 -1 -86 23 -178 69 -215 107 l-30 31 45 -25 c25 -14 81 -35 125
-48 72 -21 100 -23 275 -23 183 1 200 3 283 28 49 15 109 38 135 52 61 31 64
30 22 -6z"/>
<path d="M1805 439 c-352 -19 -659 -67 -731 -114 -53 -35 -10 -117 85 -159 39
-18 39 -18 102 12 115 54 226 85 278 79 25 -4 97 -13 160 -22 l114 -15 76 27
c70 26 88 28 216 28 117 0 152 -4 213 -23 l72 -23 131 22 130 22 135 -44 136
-43 63 32 c62 33 145 96 145 112 0 20 -166 65 -315 85 -238 32 -665 43 -1010
24z"/>
</g>
</svg>
