<svg id="svg" version="1.1" xmlns="http://www.w3.org/2000/svg" xmlns:xlink="http://www.w3.org/1999/xlink" width="400" height="297.32620320855614" viewBox="0, 0, 400,297.32620320855614"><g id="svgg"><path id="path0" d="M219.033 16.999 C 216.743 17.134,213.532 17.444,211.896 17.687 C 210.260 17.930,207.985 18.211,206.840 18.310 C 205.695 18.409,204.156 18.668,203.420 18.885 C 202.684 19.102,201.356 19.366,200.469 19.471 C 199.582 19.576,198.619 19.789,198.329 19.945 C 198.039 20.100,197.025 20.354,196.075 20.508 C 194.002 20.846,190.875 21.618,189.442 22.145 C 188.870 22.356,187.331 22.875,186.022 23.299 C 184.714 23.723,182.706 24.416,181.561 24.841 C 180.416 25.265,179.212 25.686,178.885 25.776 C 178.182 25.970,175.963 26.913,174.771 27.524 C 174.308 27.761,173.733 27.955,173.492 27.955 C 173.251 27.955,172.560 28.217,171.955 28.536 C 171.350 28.855,169.182 29.933,167.138 30.931 C 165.093 31.929,162.885 33.067,162.230 33.459 C 161.576 33.851,160.840 34.271,160.595 34.391 C 160.349 34.511,159.514 35.053,158.739 35.595 C 157.964 36.137,157.265 36.580,157.187 36.580 C 156.673 36.580,143.811 45.764,143.048 46.676 C 142.967 46.773,142.097 47.519,141.115 48.332 C 136.803 51.906,127.677 61.609,123.646 66.903 C 122.707 68.136,121.806 69.305,121.643 69.500 C 119.874 71.618,114.353 80.529,111.471 85.916 C 110.805 87.160,110.077 88.513,109.853 88.922 C 109.630 89.331,109.312 90.000,109.148 90.409 C 108.983 90.818,108.719 91.353,108.561 91.599 C 108.402 91.844,107.818 93.048,107.261 94.275 C 106.705 95.502,105.965 97.134,105.616 97.902 C 105.267 98.670,104.977 99.406,104.971 99.538 C 104.966 99.669,104.703 100.312,104.387 100.967 C 104.071 101.621,103.807 102.364,103.802 102.617 C 103.796 102.871,103.668 103.205,103.517 103.361 C 103.141 103.746,100.915 110.547,99.335 116.134 C 98.516 119.032,97.316 124.872,96.646 129.219 C 96.470 130.364,96.139 132.439,95.911 133.829 C 94.414 142.969,94.414 160.694,95.910 169.814 C 96.139 171.204,96.460 173.212,96.624 174.275 C 98.131 184.005,99.432 187.226,103.447 191.152 C 104.902 192.576,105.787 192.735,107.967 191.966 C 112.257 190.453,129.113 190.454,132.736 191.968 C 133.327 192.214,134.115 192.417,134.489 192.418 C 134.862 192.419,135.511 192.599,135.931 192.818 C 136.350 193.037,137.086 193.313,137.566 193.431 C 140.367 194.117,145.413 197.538,147.646 200.263 C 149.138 202.084,149.650 204.945,149.057 208.143 C 148.563 210.805,148.703 211.025,151.166 211.453 C 152.099 211.615,153.632 211.890,154.572 212.065 C 155.513 212.239,157.621 212.577,159.257 212.816 C 160.892 213.055,162.699 213.380,163.271 213.538 C 163.844 213.696,164.938 213.826,165.703 213.827 C 166.468 213.828,168.452 214.097,170.112 214.424 C 171.771 214.751,173.755 215.019,174.520 215.020 C 175.285 215.020,177.048 215.210,178.439 215.441 C 179.829 215.672,182.706 215.946,184.833 216.050 C 186.959 216.154,189.502 216.366,190.483 216.521 C 191.465 216.677,197.822 216.934,204.610 217.093 C 211.398 217.252,217.955 217.415,219.182 217.455 C 224.002 217.612,244.543 217.040,248.476 216.639 C 250.766 216.406,254.647 216.078,257.100 215.911 C 259.554 215.743,262.097 215.477,262.751 215.319 C 263.405 215.162,264.761 215.030,265.763 215.026 C 266.766 215.022,269.108 214.752,270.968 214.427 C 272.828 214.101,275.019 213.833,275.836 213.830 C 276.654 213.828,277.806 213.692,278.397 213.528 C 278.987 213.364,280.861 213.030,282.560 212.787 C 286.102 212.280,288.058 211.920,291.004 211.233 C 292.149 210.967,293.688 210.648,294.424 210.526 C 295.160 210.404,296.364 210.149,297.100 209.961 C 297.836 209.772,299.442 209.375,300.669 209.080 C 304.300 208.204,305.464 207.902,307.658 207.268 C 308.803 206.936,310.275 206.562,310.929 206.436 C 311.584 206.309,312.403 206.052,312.750 205.864 C 313.096 205.676,313.899 205.394,314.534 205.238 C 315.169 205.082,316.625 204.601,317.770 204.169 C 318.914 203.738,320.119 203.311,320.446 203.220 C 320.773 203.130,321.643 202.790,322.379 202.466 C 323.115 202.141,324.186 201.670,324.758 201.418 C 327.404 200.255,328.403 199.786,331.599 198.211 C 333.480 197.284,335.219 196.370,335.465 196.181 C 335.889 195.853,336.677 195.380,337.993 194.663 C 340.637 193.222,344.235 190.119,347.370 186.575 C 349.514 184.152,353.043 178.852,353.779 176.952 C 353.874 176.706,354.208 175.956,354.522 175.283 C 354.836 174.611,355.093 173.735,355.093 173.335 C 355.093 172.936,355.222 172.480,355.380 172.322 C 355.654 172.048,356.286 169.612,356.918 166.394 C 357.079 165.576,357.419 163.970,357.675 162.825 C 357.989 161.420,358.185 158.569,358.279 154.052 C 358.427 146.878,358.132 143.141,356.835 135.762 C 356.662 134.781,356.342 132.948,356.123 131.689 C 355.905 130.430,355.602 129.159,355.451 128.864 C 355.299 128.569,355.093 127.694,354.992 126.921 C 354.891 126.148,354.676 125.278,354.514 124.988 C 354.352 124.698,354.010 123.658,353.755 122.677 C 352.648 118.418,351.882 115.999,351.214 114.647 C 351.053 114.320,350.796 113.651,350.644 113.160 C 350.193 111.701,349.450 109.653,349.027 108.699 C 348.809 108.208,348.424 107.338,348.173 106.766 C 347.921 106.193,347.447 105.123,347.119 104.387 C 346.792 103.651,346.435 102.747,346.327 102.379 C 346.219 102.011,346.006 101.710,345.854 101.710 C 345.701 101.710,345.576 101.543,345.576 101.338 C 345.576 100.821,341.232 92.313,339.920 90.260 C 339.606 89.770,339.145 88.967,338.895 88.476 C 338.645 87.985,338.205 87.227,337.919 86.792 C 337.632 86.357,336.948 85.228,336.398 84.284 C 335.848 83.340,335.212 82.382,334.985 82.155 C 334.758 81.928,334.572 81.610,334.572 81.448 C 334.572 81.286,334.138 80.566,333.606 79.847 C 333.074 79.128,332.104 77.790,331.450 76.873 C 322.624 64.512,312.561 53.549,302.900 45.767 C 301.428 44.582,300.156 43.535,300.074 43.441 C 299.993 43.348,299.457 42.949,298.885 42.554 C 298.312 42.160,297.643 41.656,297.398 41.434 C 296.892 40.978,293.927 38.742,292.931 38.067 C 292.570 37.822,291.720 37.215,291.044 36.718 C 289.197 35.363,287.422 34.225,286.097 33.546 C 285.688 33.337,284.946 32.897,284.448 32.568 C 283.130 31.697,275.886 28.157,271.673 26.326 C 271.182 26.112,270.164 25.656,269.410 25.311 C 268.656 24.966,267.897 24.684,267.724 24.684 C 267.551 24.684,267.030 24.497,266.567 24.269 C 264.565 23.284,262.846 22.602,262.363 22.602 C 262.077 22.602,261.572 22.413,261.241 22.181 C 260.910 21.949,260.110 21.664,259.464 21.547 C 258.818 21.430,258.022 21.193,257.695 21.021 C 257.368 20.849,256.565 20.615,255.911 20.501 C 254.846 20.316,252.964 19.881,249.368 18.989 C 248.714 18.826,246.867 18.506,245.264 18.277 C 243.661 18.048,242.219 17.780,242.060 17.682 C 240.988 17.019,226.158 16.580,219.033 16.999 M171.419 69.031 C 172.908 69.377,174.676 69.913,175.349 70.221 C 176.021 70.529,176.652 70.781,176.752 70.781 C 177.577 70.781,182.289 74.681,183.981 76.766 C 185.803 79.008,189.442 85.544,189.442 86.571 C 189.442 86.757,189.638 87.529,189.878 88.287 C 192.789 97.503,192.649 109.362,189.591 112.622 C 188.721 113.550,185.204 115.302,183.729 115.542 C 183.028 115.656,181.723 115.937,180.830 116.165 C 178.958 116.643,172.633 116.702,169.219 116.273 C 167.993 116.119,165.517 115.859,163.717 115.694 C 161.918 115.529,159.643 115.203,158.662 114.968 C 156.763 114.515,154.383 113.973,153.160 113.715 C 151.829 113.435,147.385 112.066,146.423 111.641 C 145.908 111.413,145.324 111.227,145.125 111.227 C 144.087 111.227,138.525 108.162,137.290 106.909 C 130.817 100.343,141.996 77.188,154.498 71.267 C 155.152 70.957,156.156 70.475,156.729 70.195 C 157.301 69.915,158.372 69.593,159.108 69.479 C 159.844 69.365,161.249 69.087,162.230 68.861 C 164.908 68.246,168.313 68.309,171.419 69.031 M291.608 69.107 C 293.248 69.489,294.854 69.937,295.176 70.102 C 295.499 70.267,296.565 70.777,297.546 71.235 C 303.907 74.202,310.946 82.446,314.045 90.558 C 314.420 91.539,314.836 92.610,314.969 92.937 C 315.749 94.851,316.271 97.766,316.363 100.721 C 316.517 105.681,315.801 106.828,311.078 109.180 C 307.564 110.931,307.813 110.826,305.074 111.701 C 303.714 112.135,302.134 112.663,301.561 112.874 C 300.989 113.085,299.249 113.532,297.695 113.867 C 296.141 114.203,293.911 114.689,292.738 114.947 C 291.565 115.206,289.156 115.542,287.385 115.693 C 285.613 115.844,283.026 116.105,281.636 116.272 C 278.616 116.635,274.324 116.636,272.268 116.276 C 268.067 115.539,267.187 115.308,265.426 114.476 C 261.086 112.425,259.720 108.978,260.013 100.818 C 260.098 98.446,260.311 95.903,260.486 95.167 C 260.661 94.431,260.925 93.160,261.073 92.342 C 261.472 90.137,262.287 87.116,262.771 86.052 C 263.005 85.536,263.197 84.973,263.197 84.800 C 263.197 84.470,265.476 80.104,265.929 79.567 C 266.073 79.396,266.822 78.387,267.593 77.324 C 270.309 73.581,275.125 70.078,278.364 69.488 C 278.937 69.384,280.074 69.106,280.892 68.870 C 283.273 68.184,288.104 68.291,291.608 69.107 " stroke="none" fill="#1150a7" fill-rule="evenodd"></path><path id="path1" d="M221.636 16.859 C 221.922 16.934,222.390 16.934,222.677 16.859 C 222.963 16.784,222.729 16.723,222.156 16.723 C 221.584 16.723,221.349 16.784,221.636 16.859 M116.573 190.737 C 116.488 190.823,114.813 191.033,112.852 191.203 C 110.890 191.373,108.641 191.732,107.853 192.000 C 106.996 192.293,105.955 192.426,105.260 192.333 C 104.176 192.187,104.120 192.216,104.415 192.766 C 104.944 193.756,104.533 194.201,103.089 194.201 C 102.194 194.201,101.719 194.343,101.602 194.647 C 101.490 194.940,101.025 195.093,100.243 195.093 C 99.359 195.093,98.973 195.245,98.736 195.688 C 98.532 196.070,98.113 196.283,97.568 196.283 C 97.087 196.283,96.644 196.476,96.547 196.729 C 96.453 196.974,96.102 197.175,95.769 197.175 C 95.435 197.175,94.932 197.442,94.652 197.770 C 94.372 198.097,93.843 198.364,93.476 198.364 C 93.109 198.364,92.666 198.632,92.491 198.959 C 92.316 199.286,91.976 199.554,91.737 199.554 C 91.497 199.554,91.301 199.755,91.301 200.000 C 91.301 200.245,91.107 200.446,90.870 200.446 C 90.633 200.446,90.331 200.613,90.201 200.818 C 90.070 201.022,89.294 201.639,88.476 202.189 C 82.204 206.403,82.403 212.219,88.996 217.408 C 90.100 218.277,91.004 219.086,91.004 219.205 C 91.004 219.324,91.372 219.568,91.822 219.747 C 92.271 219.926,93.309 220.465,94.126 220.946 C 94.944 221.426,95.898 221.828,96.246 221.839 C 96.594 221.850,97.034 222.045,97.223 222.274 C 97.413 222.502,98.065 222.782,98.672 222.895 C 99.280 223.009,99.935 223.232,100.128 223.392 C 100.321 223.551,101.258 223.759,102.210 223.852 C 103.162 223.946,104.342 224.230,104.833 224.483 C 107.151 225.680,121.645 225.127,127.732 223.610 C 128.387 223.447,129.704 223.134,130.661 222.915 C 131.617 222.695,132.547 222.368,132.727 222.187 C 132.908 222.006,133.409 221.859,133.840 221.859 C 136.364 221.859,146.320 215.001,146.320 213.262 C 146.320 212.781,148.122 210.855,148.572 210.855 C 148.795 210.855,148.912 210.684,148.832 210.476 C 148.752 210.267,148.862 209.163,149.076 208.022 C 149.652 204.957,149.118 202.060,147.646 200.263 C 145.413 197.538,140.367 194.117,137.566 193.431 C 137.086 193.313,136.350 193.037,135.931 192.818 C 135.511 192.599,134.862 192.419,134.489 192.418 C 134.115 192.417,133.326 192.214,132.734 191.967 C 130.992 191.239,117.124 190.184,116.573 190.737 M210.558 249.835 C 208.186 249.951,202.097 250.197,197.026 250.379 C 191.955 250.562,186.803 250.839,185.576 250.993 C 184.349 251.148,181.271 251.355,178.736 251.453 C 176.201 251.551,172.654 251.817,170.855 252.044 C 169.056 252.270,165.986 252.542,164.034 252.647 C 162.082 252.752,159.494 253.027,158.283 253.259 C 157.072 253.491,155.165 253.680,154.045 253.680 C 152.925 253.680,151.097 253.868,149.982 254.098 C 148.867 254.327,146.818 254.604,145.428 254.713 C 144.037 254.822,142.498 255.031,142.007 255.177 C 141.517 255.324,139.989 255.581,138.613 255.749 C 137.155 255.927,135.899 256.247,135.602 256.516 C 135.322 256.770,134.581 257.060,133.955 257.162 C 133.329 257.263,132.476 257.524,132.059 257.742 C 131.642 257.960,130.726 258.138,130.022 258.139 C 129.319 258.140,128.370 258.335,127.913 258.571 C 127.456 258.807,126.358 259.094,125.474 259.209 C 124.590 259.323,123.602 259.598,123.280 259.820 C 122.957 260.042,122.353 260.223,121.937 260.223 C 121.521 260.223,120.681 260.491,120.071 260.818 C 119.461 261.145,118.643 261.413,118.253 261.413 C 117.864 261.413,117.389 261.600,117.199 261.830 C 117.009 262.059,116.491 262.337,116.049 262.448 C 115.606 262.559,114.675 263.117,113.979 263.687 L 112.714 264.724 112.714 266.921 C 112.714 269.833,116.422 275.688,118.266 275.688 C 118.467 275.688,118.739 275.860,118.870 276.070 C 119.148 276.516,122.962 278.788,123.941 279.090 C 124.309 279.204,124.610 279.407,124.610 279.541 C 124.610 279.675,125.065 279.870,125.621 279.975 C 126.177 280.079,126.795 280.362,126.995 280.603 C 127.588 281.316,129.159 281.128,130.458 280.186 C 132.083 279.009,135.036 277.483,137.695 276.446 C 138.922 275.967,140.089 275.454,140.289 275.305 C 140.489 275.156,141.091 274.922,141.627 274.785 C 142.163 274.647,143.539 274.182,144.684 273.750 C 145.829 273.319,147.033 272.896,147.361 272.810 C 147.688 272.725,148.625 272.409,149.442 272.109 C 150.260 271.809,151.933 271.276,153.160 270.923 C 154.387 270.570,155.859 270.110,156.431 269.900 C 159.078 268.928,161.410 268.626,162.355 269.132 C 162.648 269.289,164.011 269.612,165.384 269.851 C 166.757 270.090,168.416 270.427,169.071 270.600 C 169.725 270.773,170.809 270.918,171.480 270.922 C 172.151 270.926,173.087 271.065,173.562 271.230 C 174.036 271.395,176.230 271.731,178.439 271.976 C 180.647 272.222,183.524 272.547,184.833 272.699 C 192.685 273.610,194.989 273.712,196.256 273.205 C 196.932 272.935,197.733 272.714,198.037 272.714 C 198.340 272.714,198.755 272.513,198.959 272.268 C 199.163 272.022,199.619 271.822,199.974 271.822 C 200.328 271.822,201.143 271.554,201.784 271.227 C 202.426 270.900,203.241 270.632,203.595 270.632 C 203.950 270.632,204.406 270.431,204.610 270.186 C 204.813 269.941,205.360 269.740,205.825 269.740 C 206.289 269.740,207.348 269.472,208.178 269.145 C 209.008 268.818,210.222 268.550,210.876 268.550 C 211.529 268.550,212.561 268.336,213.169 268.073 C 214.595 267.458,235.000 267.348,236.123 267.950 C 236.488 268.145,237.944 268.415,239.360 268.550 C 240.775 268.685,242.335 269.007,242.825 269.266 C 243.316 269.524,244.190 269.737,244.767 269.738 C 245.344 269.739,246.080 269.921,246.402 270.142 C 246.725 270.363,247.575 270.635,248.290 270.746 C 249.006 270.857,249.873 271.145,250.215 271.385 C 250.558 271.625,251.248 271.822,251.747 271.822 C 252.247 271.822,252.960 272.034,253.331 272.294 C 253.823 272.639,254.426 272.726,255.553 272.616 C 258.400 272.337,264.220 271.570,265.874 271.256 C 266.773 271.085,268.446 270.802,269.591 270.628 C 274.660 269.857,277.069 269.422,277.641 269.175 C 280.576 267.909,285.306 268.143,290.112 269.792 C 290.602 269.960,291.673 270.274,292.491 270.490 C 293.908 270.863,294.699 271.109,296.877 271.855 C 297.409 272.037,298.495 272.368,299.291 272.591 C 300.087 272.813,300.890 273.115,301.075 273.262 C 301.261 273.408,301.941 273.624,302.587 273.740 C 303.233 273.857,304.032 274.142,304.363 274.374 C 304.694 274.606,305.329 274.796,305.774 274.796 C 306.218 274.796,306.664 274.928,306.763 275.089 C 306.863 275.250,307.672 275.594,308.560 275.852 C 309.448 276.110,310.252 276.447,310.347 276.599 C 310.616 277.035,312.835 276.925,313.709 276.433 C 314.143 276.189,314.833 275.855,315.242 275.690 C 315.651 275.526,316.186 275.271,316.431 275.123 C 316.677 274.976,317.546 274.541,318.364 274.156 C 319.182 273.772,319.918 273.378,320.000 273.280 C 320.142 273.111,321.044 272.602,322.677 271.769 C 323.086 271.560,324.054 270.951,324.830 270.416 C 325.605 269.880,326.313 269.442,326.404 269.442 C 326.587 269.442,329.667 267.168,330.431 266.468 C 330.699 266.223,331.411 265.571,332.014 265.020 C 333.545 263.620,334.680 261.413,333.869 261.413 C 333.646 261.413,333.123 261.145,332.707 260.818 C 332.291 260.491,331.634 260.223,331.246 260.223 C 330.858 260.223,330.277 260.041,329.955 259.818 C 329.632 259.595,328.743 259.321,327.980 259.209 C 327.216 259.096,326.430 258.810,326.233 258.573 C 326.019 258.315,325.346 258.141,324.558 258.141 C 323.834 258.141,322.880 257.954,322.438 257.726 C 321.997 257.497,320.832 257.213,319.851 257.093 C 318.860 256.972,317.141 256.442,315.985 255.899 C 314.788 255.338,313.145 254.837,312.119 254.720 C 311.138 254.609,309.675 254.329,308.868 254.099 C 308.061 253.869,306.790 253.678,306.043 253.676 C 305.295 253.673,303.848 253.474,302.827 253.234 C 301.805 252.993,299.195 252.657,297.027 252.488 C 294.859 252.319,292.550 252.053,291.896 251.897 C 291.242 251.741,289.569 251.607,288.178 251.600 C 286.788 251.593,284.178 251.384,282.379 251.136 C 280.580 250.887,275.361 250.559,270.781 250.407 C 266.201 250.254,260.513 249.994,258.141 249.828 C 253.372 249.494,217.372 249.499,210.558 249.835 " stroke="none" fill="#8d44b3" fill-rule="evenodd"></path><path id="path2" d="M357.646 30.518 C 357.065 31.116,356.172 32.256,355.662 33.052 C 355.151 33.847,354.614 34.498,354.467 34.498 C 354.321 34.498,354.201 34.625,354.201 34.781 C 354.201 34.936,353.766 35.706,353.236 36.491 C 352.172 38.065,351.699 38.904,350.504 41.338 C 350.063 42.238,349.590 43.184,349.454 43.441 C 348.703 44.858,346.461 51.343,346.465 52.085 C 346.467 52.353,346.268 52.955,346.024 53.423 C 345.780 53.892,345.579 54.689,345.578 55.194 C 345.577 55.700,345.370 56.771,345.118 57.574 C 344.644 59.079,344.213 63.243,343.891 69.411 C 343.644 74.157,344.174 78.412,345.183 79.762 C 345.586 80.302,346.793 82.082,347.865 83.717 C 348.937 85.353,350.180 87.227,350.628 87.881 C 351.076 88.535,351.665 89.472,351.938 89.963 C 352.211 90.454,352.697 91.257,353.017 91.747 C 353.337 92.238,353.766 92.974,353.968 93.383 C 354.171 93.792,354.422 94.193,354.526 94.275 C 354.630 94.357,355.362 95.628,356.152 97.100 C 356.942 98.572,357.887 100.312,358.250 100.967 C 358.614 101.621,359.870 104.030,361.041 106.320 C 362.212 108.610,363.284 110.684,363.423 110.929 C 364.001 111.949,367.881 120.404,367.881 120.643 C 367.881 120.806,368.732 122.742,369.373 124.036 C 369.500 124.293,369.964 125.430,370.405 126.564 C 370.845 127.697,371.651 129.762,372.196 131.152 C 372.741 132.543,373.543 134.737,373.978 136.029 C 374.413 137.321,375.045 138.752,375.384 139.210 L 375.999 140.043 377.665 137.893 C 379.437 135.606,380.149 134.626,381.658 132.398 C 384.155 128.711,387.053 122.402,388.651 117.175 C 388.976 116.112,389.455 114.554,389.714 113.714 C 392.083 106.049,392.862 88.174,391.039 83.325 C 390.896 82.946,390.632 81.674,390.451 80.500 C 390.270 79.325,389.993 78.121,389.835 77.824 C 389.678 77.527,389.430 76.657,389.284 75.891 C 388.971 74.246,388.045 70.979,387.557 69.795 C 387.367 69.334,387.212 68.769,387.212 68.539 C 387.212 68.308,386.957 67.548,386.646 66.848 C 386.334 66.149,385.851 64.974,385.572 64.238 C 385.293 63.502,384.812 62.350,384.503 61.677 C 384.194 61.005,383.941 60.370,383.941 60.265 C 383.941 59.995,380.455 53.025,379.606 51.599 C 379.217 50.944,378.776 50.136,378.625 49.802 C 378.475 49.468,378.137 49.017,377.875 48.799 C 377.612 48.581,377.398 48.273,377.398 48.115 C 377.398 47.956,377.164 47.519,376.877 47.145 C 376.591 46.770,376.156 46.162,375.911 45.795 C 373.321 41.917,367.495 35.431,365.097 33.755 C 364.629 33.428,364.094 33.025,363.908 32.860 C 363.564 32.557,359.701 29.982,359.053 29.625 C 358.857 29.517,358.233 29.913,357.646 30.518 M92.342 31.398 C 91.361 32.125,90.223 32.953,89.814 33.237 C 87.657 34.738,81.487 40.832,81.487 41.461 C 81.487 41.557,81.253 41.883,80.967 42.186 C 79.851 43.365,78.216 45.683,78.216 46.085 C 78.216 46.255,78.098 46.394,77.954 46.394 C 77.811 46.394,77.531 46.786,77.332 47.265 C 77.134 47.744,76.783 48.208,76.553 48.296 C 76.322 48.385,76.134 48.729,76.134 49.061 C 76.134 49.394,76.013 49.665,75.866 49.665 C 75.718 49.665,75.457 50.069,75.285 50.562 C 75.113 51.054,74.765 51.537,74.512 51.634 C 74.259 51.731,74.052 52.115,74.052 52.486 C 74.052 52.858,73.851 53.328,73.606 53.532 C 73.361 53.735,73.160 54.077,73.160 54.290 C 73.160 54.504,72.656 55.458,72.040 56.410 C 71.424 57.362,70.768 58.543,70.583 59.033 C 70.397 59.524,69.696 61.244,69.024 62.855 C 68.352 64.467,67.467 66.809,67.058 68.060 C 66.648 69.311,66.167 70.736,65.988 71.227 C 65.810 71.717,65.495 72.795,65.289 73.622 C 65.083 74.448,64.773 75.586,64.602 76.150 C 64.306 77.120,63.518 80.669,62.724 84.610 C 62.526 85.591,62.305 87.774,62.232 89.462 L 62.101 92.529 63.244 93.669 C 67.000 97.415,67.495 98.315,68.870 103.892 C 70.142 109.055,69.454 114.884,66.962 120.052 C 66.545 120.916,66.552 121.104,67.053 122.282 C 68.193 124.960,69.610 128.046,69.898 128.476 C 70.063 128.721,70.401 129.323,70.649 129.814 C 71.979 132.443,77.249 139.560,77.672 139.299 C 78.039 139.072,79.108 136.622,79.110 136.001 C 79.111 135.706,79.306 135.091,79.545 134.634 C 79.783 134.178,80.065 133.308,80.171 132.701 C 80.277 132.095,80.550 131.302,80.777 130.940 C 81.004 130.578,81.190 130.003,81.190 129.664 C 81.190 129.325,81.457 128.522,81.784 127.881 C 82.112 127.240,82.379 126.496,82.379 126.229 C 82.379 125.961,82.573 125.387,82.810 124.953 C 83.412 123.850,84.461 121.321,84.461 120.974 C 84.461 120.815,84.653 120.263,84.888 119.748 C 85.124 119.232,85.665 117.941,86.091 116.877 C 86.518 115.814,86.989 114.677,87.138 114.349 C 87.286 114.022,87.759 112.885,88.187 111.822 C 89.558 108.418,93.707 99.884,96.211 95.316 C 97.108 93.680,98.044 91.941,98.293 91.450 C 98.542 90.959,98.871 90.357,99.025 90.112 C 99.178 89.866,99.946 88.552,100.730 87.190 C 102.370 84.344,102.325 84.420,104.092 81.547 C 104.827 80.354,105.562 79.149,105.727 78.871 C 106.202 78.068,108.851 73.985,109.473 73.098 C 110.184 72.082,110.255 66.067,109.591 63.048 C 109.357 61.985,109.161 60.571,109.155 59.905 C 109.150 59.240,108.933 57.981,108.674 57.108 C 108.414 56.235,108.089 54.906,107.950 54.155 C 107.587 52.196,106.370 48.280,105.310 45.660 C 104.398 43.405,101.492 37.876,100.410 36.337 C 99.811 35.485,98.822 34.077,98.211 33.207 C 95.548 29.416,95.175 29.301,92.342 31.398 M162.230 68.861 C 161.249 69.087,159.844 69.365,159.108 69.479 C 158.372 69.593,157.301 69.915,156.729 70.195 C 156.156 70.475,155.152 70.957,154.498 71.267 C 141.996 77.188,130.817 100.343,137.290 106.909 C 138.525 108.162,144.087 111.227,145.125 111.227 C 145.324 111.227,145.908 111.413,146.423 111.641 C 147.385 112.066,151.829 113.435,153.160 113.715 C 154.383 113.973,156.763 114.515,158.662 114.968 C 159.643 115.203,161.918 115.529,163.717 115.694 C 165.517 115.859,167.993 116.119,169.219 116.273 C 172.633 116.702,178.958 116.643,180.830 116.165 C 181.723 115.937,183.028 115.656,183.729 115.542 C 185.204 115.302,188.721 113.550,189.591 112.622 C 192.649 109.362,192.789 97.503,189.878 88.287 C 189.638 87.529,189.442 86.757,189.442 86.571 C 189.442 85.544,185.803 79.008,183.981 76.766 C 182.289 74.681,177.577 70.781,176.752 70.781 C 176.652 70.781,176.021 70.529,175.349 70.221 C 171.844 68.615,165.958 68.005,162.230 68.861 M280.892 68.870 C 280.074 69.106,278.937 69.384,278.364 69.488 C 275.125 70.078,270.309 73.581,267.593 77.324 C 266.822 78.387,266.073 79.396,265.929 79.567 C 265.476 80.104,263.197 84.470,263.197 84.800 C 263.197 84.973,263.005 85.536,262.771 86.052 C 262.287 87.116,261.472 90.137,261.073 92.342 C 260.925 93.160,260.661 94.431,260.486 95.167 C 259.145 100.802,260.110 109.704,262.336 112.232 C 264.660 114.872,269.996 116.509,276.431 116.556 C 277.903 116.567,280.245 116.439,281.636 116.272 C 283.026 116.105,285.613 115.844,287.385 115.693 C 289.156 115.542,291.565 115.206,292.738 114.947 C 293.911 114.689,296.141 114.203,297.695 113.867 C 299.249 113.532,300.989 113.085,301.561 112.874 C 302.134 112.663,303.714 112.135,305.074 111.701 C 307.813 110.826,307.564 110.931,311.078 109.180 C 315.801 106.828,316.517 105.681,316.363 100.721 C 316.271 97.766,315.749 94.851,314.969 92.937 C 314.836 92.610,314.420 91.539,314.045 90.558 C 310.946 82.446,303.907 74.202,297.546 71.235 C 296.565 70.777,295.499 70.267,295.176 70.102 C 292.381 68.669,284.075 67.953,280.892 68.870 " stroke="none" fill="#30ebef" fill-rule="evenodd"></path><path id="path3" d="M0.000 148.699 L 0.000 297.398 140.669 297.398 L 281.338 297.398 281.338 296.348 C 281.338 294.518,282.781 294.579,283.702 296.447 L 284.164 297.384 342.082 297.391 L 400.000 297.398 400.000 148.699 L 400.000 0.000 200.000 0.000 L 0.000 0.000 0.000 148.699 M236.719 16.516 C 244.175 17.361,249.737 18.223,250.597 18.667 C 250.903 18.825,251.867 19.045,252.740 19.156 C 253.613 19.267,254.550 19.481,254.821 19.632 C 255.093 19.782,256.083 20.053,257.021 20.233 C 257.959 20.413,258.803 20.685,258.897 20.838 C 258.991 20.990,259.429 21.120,259.869 21.125 C 260.309 21.131,261.204 21.394,261.859 21.710 C 262.513 22.026,263.257 22.289,263.512 22.295 C 263.767 22.300,264.235 22.501,264.553 22.741 C 264.870 22.982,265.331 23.184,265.576 23.190 C 265.822 23.197,266.691 23.532,267.509 23.934 C 268.327 24.336,269.197 24.674,269.442 24.684 C 269.688 24.694,270.148 24.899,270.466 25.140 C 270.783 25.380,271.269 25.576,271.545 25.576 C 271.820 25.576,272.213 25.777,272.416 26.022 C 272.620 26.268,272.986 26.468,273.230 26.468 C 274.077 26.468,287.027 33.106,287.237 33.647 C 287.291 33.788,287.492 33.903,287.683 33.903 C 287.874 33.903,288.967 34.566,290.112 35.375 C 291.257 36.184,292.729 37.221,293.383 37.678 C 295.413 39.095,301.395 43.760,301.743 44.196 C 301.924 44.423,302.161 44.610,302.267 44.610 C 302.521 44.610,305.607 47.120,306.806 48.301 C 307.319 48.806,308.709 50.089,309.895 51.152 C 311.835 52.892,316.428 57.487,318.260 59.521 C 320.170 61.643,322.134 63.937,323.189 65.279 C 323.832 66.097,324.787 67.234,325.311 67.807 C 325.835 68.379,326.628 69.375,327.073 70.020 C 327.517 70.665,328.249 71.598,328.699 72.094 C 329.149 72.589,329.517 73.089,329.517 73.205 C 329.517 73.320,329.686 73.592,329.892 73.808 C 330.475 74.418,332.838 77.707,333.829 79.287 C 334.320 80.070,334.954 81.052,335.238 81.470 C 335.523 81.888,335.912 82.532,336.104 82.900 C 336.296 83.268,336.565 83.569,336.702 83.569 C 336.839 83.569,336.952 83.751,336.952 83.975 C 336.952 84.198,337.204 84.701,337.512 85.093 C 338.060 85.789,339.557 88.330,340.293 89.814 C 340.496 90.223,340.831 90.734,341.037 90.951 C 341.244 91.167,341.413 91.525,341.413 91.747 C 341.413 91.969,341.580 92.328,341.784 92.544 C 341.989 92.760,342.801 94.208,343.589 95.762 C 344.378 97.316,345.132 98.788,345.265 99.033 C 345.942 100.279,347.640 104.033,347.820 104.684 C 347.933 105.093,348.196 105.628,348.404 105.874 C 348.611 106.119,348.874 106.755,348.987 107.286 C 349.100 107.818,349.288 108.253,349.405 108.253 C 349.521 108.253,349.766 108.755,349.949 109.368 C 350.404 110.897,351.166 112.971,351.686 114.097 C 351.924 114.612,352.119 115.194,352.119 115.390 C 352.119 115.586,352.305 116.168,352.533 116.684 C 353.149 118.078,353.916 120.438,354.191 121.784 C 354.325 122.439,354.582 123.375,354.763 123.866 C 355.291 125.298,356.004 128.194,356.264 129.963 C 356.397 130.862,356.723 132.325,356.988 133.214 C 357.254 134.102,357.472 135.383,357.472 136.059 C 357.472 136.736,357.664 137.950,357.898 138.756 C 359.133 143.015,359.119 161.038,357.877 164.573 C 357.654 165.207,357.466 166.143,357.459 166.654 C 357.452 167.166,357.246 168.119,357.002 168.773 C 356.758 169.428,356.440 170.565,356.297 171.301 C 355.986 172.891,355.257 175.009,354.643 176.105 C 354.400 176.540,354.201 177.030,354.201 177.194 C 354.201 177.468,352.003 181.454,351.466 182.156 C 347.188 187.741,341.223 193.903,340.095 193.903 C 339.875 193.903,338.074 195.135,337.838 195.446 C 337.753 195.559,337.351 195.800,336.946 195.982 C 336.540 196.164,335.673 196.630,335.019 197.017 C 332.503 198.506,324.109 202.520,323.477 202.537 C 323.282 202.543,322.863 202.743,322.545 202.983 C 322.228 203.224,321.780 203.420,321.549 203.420 C 321.319 203.420,320.709 203.601,320.194 203.822 C 318.481 204.556,316.011 205.432,313.755 206.107 C 312.528 206.473,310.754 207.022,309.813 207.327 C 308.872 207.632,307.826 207.881,307.489 207.881 C 307.151 207.881,306.634 208.010,306.338 208.169 C 305.840 208.435,304.539 208.764,299.926 209.791 C 298.944 210.009,297.807 210.321,297.398 210.485 C 296.989 210.648,295.818 210.878,294.795 210.996 C 293.772 211.114,292.867 211.322,292.783 211.458 C 292.699 211.594,291.863 211.792,290.925 211.898 C 289.987 212.004,288.533 212.280,287.694 212.511 C 286.854 212.743,285.182 213.055,283.976 213.204 C 282.771 213.353,280.914 213.617,279.851 213.790 C 276.782 214.291,273.773 214.678,269.252 215.154 C 266.939 215.397,264.463 215.724,263.750 215.881 C 263.037 216.037,260.714 216.256,258.587 216.366 C 256.461 216.476,254.186 216.680,253.532 216.820 C 250.231 217.526,220.681 218.395,212.207 218.034 C 207.620 217.839,200.454 217.547,196.283 217.384 C 192.112 217.221,188.030 216.966,187.212 216.817 C 186.394 216.668,183.985 216.459,181.859 216.354 C 179.732 216.248,177.390 216.035,176.654 215.880 C 175.918 215.724,173.710 215.408,171.747 215.176 C 168.007 214.735,165.024 214.323,161.784 213.798 C 160.721 213.626,158.633 213.314,157.143 213.106 C 155.654 212.898,154.312 212.651,154.161 212.558 C 154.010 212.465,152.753 212.233,151.368 212.044 C 149.983 211.854,148.678 211.556,148.468 211.382 C 148.019 211.009,146.750 212.050,146.432 213.053 C 146.180 213.847,143.613 216.537,142.122 217.570 C 141.486 218.011,140.967 218.553,140.967 218.777 C 140.967 219.000,140.699 219.182,140.372 219.182 C 140.041 219.182,139.777 219.380,139.777 219.628 C 139.777 219.874,139.617 220.074,139.421 220.074 C 139.120 220.074,136.973 221.388,136.506 221.858 C 136.424 221.940,135.086 222.652,133.532 223.441 C 131.978 224.229,130.506 224.991,130.260 225.134 C 130.015 225.277,128.543 226.010,126.989 226.763 C 125.435 227.517,123.963 228.243,123.717 228.377 C 123.233 228.641,120.352 230.006,116.134 231.970 C 110.880 234.415,108.403 235.678,106.970 236.643 C 106.171 237.181,105.329 237.621,105.100 237.621 C 104.871 237.621,104.684 237.742,104.684 237.889 C 104.684 238.037,104.316 238.310,103.866 238.496 C 103.416 238.682,102.558 239.130,101.960 239.491 C 98.686 241.469,97.839 242.006,95.694 243.466 C 92.697 245.507,91.488 246.355,91.301 246.547 C 91.219 246.631,90.416 247.295,89.517 248.023 C 88.617 248.752,86.905 250.289,85.713 251.439 C 83.251 253.815,82.826 254.019,82.558 252.952 C 82.454 252.535,82.243 252.193,82.090 252.193 C 81.937 252.193,81.724 251.730,81.618 251.163 C 81.512 250.596,81.238 249.978,81.010 249.788 C 80.782 249.599,80.594 249.226,80.593 248.960 C 80.592 248.694,80.325 248.074,80.000 247.584 C 79.675 247.093,79.408 246.417,79.407 246.082 C 79.406 245.746,79.282 245.345,79.132 245.190 C 78.867 244.917,77.933 242.448,77.280 240.297 C 77.106 239.725,76.856 239.123,76.724 238.959 C 76.592 238.796,76.387 238.139,76.267 237.500 C 76.148 236.861,75.869 235.991,75.648 235.567 C 75.426 235.143,75.246 234.595,75.248 234.349 C 75.249 234.104,74.993 233.033,74.678 231.970 C 73.673 228.577,73.347 227.122,72.516 222.323 C 72.442 221.894,72.644 221.690,73.309 221.525 C 74.989 221.106,80.270 220.372,81.604 220.372 C 82.337 220.372,83.821 220.167,84.901 219.916 C 85.981 219.666,87.795 219.432,88.931 219.396 C 91.462 219.316,91.461 219.348,88.996 217.408 C 82.403 212.219,82.204 206.403,88.476 202.189 C 89.294 201.639,90.070 201.022,90.201 200.818 C 90.331 200.613,90.633 200.446,90.870 200.446 C 91.107 200.446,91.301 200.245,91.301 200.000 C 91.301 199.755,91.497 199.554,91.737 199.554 C 91.976 199.554,92.316 199.286,92.491 198.959 C 92.666 198.632,93.109 198.364,93.476 198.364 C 93.843 198.364,94.372 198.097,94.652 197.770 C 94.932 197.442,95.435 197.175,95.769 197.175 C 96.102 197.175,96.453 196.974,96.547 196.729 C 96.644 196.476,97.087 196.283,97.568 196.283 C 98.113 196.283,98.532 196.070,98.736 195.688 C 98.973 195.245,99.359 195.093,100.243 195.093 C 101.025 195.093,101.490 194.940,101.602 194.647 C 101.719 194.343,102.194 194.201,103.089 194.201 C 105.131 194.201,105.048 193.636,102.624 191.040 C 100.357 188.613,98.517 185.775,98.232 184.269 C 98.136 183.761,97.933 183.186,97.780 182.991 C 97.627 182.797,97.368 181.663,97.203 180.472 C 97.038 179.282,96.779 178.076,96.627 177.793 C 96.475 177.510,96.237 176.151,96.098 174.773 C 95.958 173.396,95.755 172.125,95.647 171.950 C 95.539 171.775,95.254 169.650,95.014 167.228 C 94.774 164.807,94.445 161.621,94.283 160.149 C 93.902 156.689,93.904 146.933,94.286 143.494 C 94.449 142.022,94.770 138.877,94.998 136.506 C 95.226 134.134,95.558 131.817,95.736 131.356 C 95.914 130.896,96.061 129.959,96.063 129.274 C 96.065 128.590,96.331 126.959,96.654 125.651 C 96.978 124.342,97.244 122.803,97.247 122.230 C 97.250 121.658,97.432 120.846,97.652 120.425 C 97.871 120.005,98.141 118.976,98.252 118.138 C 98.364 117.300,98.652 116.143,98.893 115.566 C 99.134 114.989,99.332 114.212,99.333 113.839 C 99.334 113.465,99.529 112.786,99.768 112.329 C 100.006 111.873,100.288 111.003,100.394 110.396 C 100.500 109.790,100.773 108.997,101.000 108.635 C 101.227 108.273,101.413 107.703,101.413 107.370 C 101.413 107.036,101.680 106.264,102.007 105.654 C 102.335 105.044,102.606 104.274,102.612 103.945 C 102.617 103.615,102.818 103.086,103.058 102.768 C 103.298 102.451,103.494 101.997,103.494 101.760 C 103.494 101.523,103.777 100.712,104.121 99.958 C 104.466 99.204,104.923 98.186,105.136 97.695 C 105.350 97.204,105.871 96.042,106.294 95.111 C 106.717 94.181,107.063 93.278,107.063 93.104 C 107.063 92.930,107.197 92.788,107.361 92.788 C 107.524 92.788,107.658 92.637,107.658 92.452 C 107.658 91.919,110.254 86.849,113.223 81.585 C 115.269 77.955,117.630 74.189,118.283 73.510 C 118.491 73.294,118.662 72.979,118.662 72.809 C 118.662 72.639,119.304 71.679,120.089 70.674 C 120.874 69.670,121.739 68.492,122.011 68.057 C 122.283 67.622,122.812 66.926,123.186 66.510 C 123.560 66.094,124.134 65.409,124.461 64.988 C 125.173 64.073,125.249 63.980,127.141 61.730 C 129.895 58.455,134.220 53.971,138.347 50.112 C 140.459 48.136,141.555 47.194,143.941 45.298 C 144.513 44.843,145.088 44.301,145.219 44.094 C 145.350 43.887,145.584 43.717,145.740 43.717 C 145.895 43.717,146.257 43.511,146.543 43.259 C 147.673 42.263,150.183 40.446,150.428 40.446 C 150.571 40.446,150.931 40.178,151.227 39.851 C 151.523 39.524,151.931 39.257,152.133 39.257 C 152.336 39.257,152.578 39.056,152.673 38.810 C 152.767 38.565,152.983 38.364,153.154 38.364 C 153.324 38.364,154.130 37.896,154.944 37.323 C 155.759 36.751,156.516 36.283,156.628 36.283 C 156.739 36.283,157.076 36.060,157.376 35.788 C 157.936 35.282,158.691 34.809,160.000 34.144 C 160.409 33.937,160.810 33.684,160.892 33.584 C 161.056 33.381,161.639 33.062,164.652 31.524 C 165.774 30.952,166.868 30.316,167.084 30.112 C 167.301 29.907,167.635 29.740,167.828 29.741 C 168.021 29.741,168.781 29.449,169.517 29.092 C 170.253 28.735,171.323 28.250,171.896 28.015 C 172.468 27.779,173.432 27.335,174.037 27.027 C 174.642 26.720,175.378 26.464,175.672 26.459 C 175.967 26.454,176.468 26.253,176.785 26.013 C 177.103 25.773,177.551 25.576,177.781 25.576 C 178.012 25.576,178.622 25.381,179.137 25.143 C 180.244 24.632,182.277 23.880,183.941 23.367 C 184.595 23.165,185.331 22.918,185.576 22.817 C 187.076 22.200,190.624 21.115,191.141 21.115 C 191.478 21.115,192.137 20.915,192.605 20.671 C 193.074 20.427,193.821 20.226,194.265 20.225 C 194.709 20.224,195.646 20.030,196.346 19.794 C 197.047 19.558,198.357 19.270,199.257 19.155 C 200.156 19.040,201.386 18.773,201.988 18.563 C 202.591 18.353,204.064 18.094,205.260 17.988 C 206.456 17.882,207.836 17.675,208.327 17.529 C 208.818 17.383,211.067 17.118,213.324 16.941 C 215.582 16.763,217.991 16.507,218.678 16.371 C 220.887 15.935,232.408 16.027,236.719 16.516 M96.952 23.228 C 96.952 23.409,97.253 23.926,97.621 24.377 C 97.989 24.827,98.491 25.503,98.736 25.879 C 98.981 26.254,99.416 26.771,99.703 27.027 C 99.989 27.283,100.223 27.664,100.223 27.873 C 100.223 28.082,100.394 28.253,100.604 28.253 C 100.813 28.253,101.151 28.621,101.353 29.071 C 102.021 30.552,102.631 31.524,102.892 31.524 C 103.034 31.524,103.240 31.935,103.350 32.436 C 103.460 32.938,103.739 33.421,103.969 33.509 C 104.198 33.597,104.387 33.905,104.387 34.192 C 104.387 34.480,104.654 35.056,104.981 35.471 C 105.309 35.887,105.576 36.512,105.576 36.859 C 105.576 37.207,105.764 37.563,105.993 37.651 C 106.222 37.739,106.494 38.256,106.596 38.801 C 106.698 39.346,106.979 39.955,107.220 40.155 C 107.461 40.355,107.658 40.955,107.658 41.487 C 107.658 42.019,107.842 42.608,108.067 42.794 C 108.292 42.981,108.558 43.649,108.659 44.279 C 108.760 44.909,109.027 45.578,109.253 45.765 C 109.479 45.953,109.730 46.699,109.812 47.422 C 109.893 48.146,110.178 48.957,110.445 49.223 C 110.725 49.504,110.929 50.191,110.929 50.855 C 110.929 51.486,111.110 52.183,111.331 52.404 C 111.552 52.625,111.801 53.506,111.883 54.361 C 111.965 55.217,112.252 56.160,112.522 56.458 C 112.850 56.820,113.011 57.532,113.011 58.619 C 113.011 59.576,113.193 60.499,113.456 60.874 C 114.105 61.802,114.130 65.838,113.490 66.479 C 113.226 66.742,113.011 67.143,113.011 67.371 C 113.011 67.599,112.743 67.929,112.416 68.104 C 112.089 68.279,111.822 68.607,111.822 68.833 C 111.822 69.059,111.708 69.289,111.568 69.343 C 111.429 69.398,111.042 70.178,110.708 71.078 C 110.172 72.522,108.556 75.325,107.671 76.346 C 107.499 76.544,107.203 77.046,107.014 77.461 C 106.825 77.876,106.558 78.216,106.421 78.216 C 106.283 78.216,106.171 78.389,106.171 78.601 C 106.171 78.813,105.964 79.248,105.712 79.568 C 104.921 80.568,99.855 88.999,98.683 91.265 C 98.376 91.857,97.599 93.279,96.956 94.424 C 95.771 96.532,91.999 104.063,90.625 107.063 C 90.212 107.963,89.460 109.582,88.953 110.661 C 88.445 111.740,88.030 112.729,88.030 112.859 C 88.030 112.988,87.772 113.645,87.457 114.317 C 86.913 115.479,85.986 117.821,83.766 123.643 C 82.294 127.503,82.054 128.185,81.604 129.797 C 81.378 130.606,81.059 131.402,80.894 131.567 C 80.729 131.732,80.594 132.274,80.593 132.773 C 80.592 133.272,80.325 134.082,80.000 134.572 C 79.675 135.063,79.408 135.917,79.407 136.470 C 79.402 138.900,77.840 140.058,76.649 138.513 C 76.239 137.981,75.624 137.212,75.281 136.803 C 74.305 135.639,74.283 135.607,72.527 132.937 C 70.485 129.830,68.763 126.614,67.671 123.866 C 67.216 122.721,66.666 121.436,66.449 121.011 C 66.117 120.362,66.120 120.142,66.468 119.645 C 66.696 119.320,67.039 118.430,67.231 117.668 C 67.423 116.906,67.698 116.283,67.842 116.283 C 67.986 116.283,68.104 115.899,68.104 115.429 C 68.104 114.960,68.313 113.388,68.569 111.935 C 69.068 109.105,68.574 103.496,67.669 101.710 C 67.462 101.301,67.201 100.581,67.088 100.111 C 66.780 98.818,64.930 96.087,63.278 94.482 L 61.806 93.052 61.998 90.169 C 62.104 88.584,62.374 86.349,62.599 85.204 C 62.824 84.059,63.165 82.320,63.358 81.338 C 63.986 78.143,65.329 72.820,65.984 70.929 C 66.154 70.439,66.579 69.167,66.930 68.104 C 67.281 67.041,67.679 65.903,67.815 65.576 C 70.035 60.240,70.743 58.589,71.089 57.939 C 71.235 57.664,71.835 56.496,72.423 55.344 C 73.010 54.192,73.617 53.171,73.771 53.075 C 73.926 52.980,74.052 52.638,74.052 52.315 C 74.052 51.993,74.245 51.655,74.480 51.564 C 74.715 51.474,74.994 51.010,75.098 50.533 C 75.203 50.056,75.416 49.665,75.572 49.665 C 75.728 49.665,75.943 49.431,76.050 49.145 C 76.158 48.859,76.689 47.990,77.231 47.215 C 77.772 46.440,78.216 45.715,78.216 45.604 C 78.216 45.494,78.423 45.191,78.677 44.932 C 78.931 44.673,79.913 43.436,80.859 42.184 C 81.805 40.931,82.768 39.708,82.999 39.465 C 85.646 36.684,86.633 35.560,87.823 33.974 C 88.591 32.950,89.219 31.980,89.219 31.818 C 89.219 31.656,89.360 31.524,89.532 31.524 C 89.704 31.524,90.040 31.056,90.279 30.483 C 90.519 29.911,90.846 29.442,91.008 29.442 C 91.169 29.442,91.301 29.175,91.301 28.848 C 91.301 28.520,91.493 28.253,91.727 28.253 C 91.962 28.253,92.228 28.019,92.320 27.732 C 92.411 27.446,92.989 26.659,93.604 25.984 C 94.218 25.309,95.090 24.339,95.541 23.828 C 96.377 22.882,96.952 22.638,96.952 23.228 M358.959 23.331 C 358.959 23.568,359.126 23.869,359.331 24.000 C 359.814 24.309,361.041 26.061,361.041 26.442 C 361.041 26.604,361.251 26.854,361.509 26.998 C 362.004 27.275,362.592 28.179,363.134 29.493 C 363.314 29.930,363.653 30.360,363.887 30.450 C 364.121 30.540,364.312 30.833,364.312 31.101 C 364.312 31.572,367.489 35.649,369.050 37.181 C 369.470 37.593,370.681 38.999,371.741 40.304 C 372.800 41.609,373.804 42.835,373.971 43.028 C 374.138 43.221,374.743 44.072,375.316 44.920 C 375.888 45.767,376.591 46.713,376.877 47.022 C 377.164 47.331,377.398 47.670,377.398 47.776 C 377.398 47.882,377.896 48.718,378.505 49.635 C 382.416 55.521,387.451 67.728,389.496 76.283 C 390.867 82.015,391.158 83.565,391.674 87.881 C 392.641 95.967,391.708 109.115,389.871 113.291 C 389.696 113.691,389.435 114.561,389.293 115.224 C 388.993 116.625,388.221 118.997,387.626 120.342 C 387.398 120.858,387.212 121.439,387.212 121.635 C 387.212 121.830,387.019 122.345,386.783 122.779 C 386.547 123.214,385.981 124.439,385.526 125.502 C 384.581 127.707,382.043 132.190,381.221 133.105 C 380.917 133.442,380.669 133.818,380.669 133.939 C 380.669 134.103,377.050 138.844,375.986 140.074 C 375.770 140.324,374.422 138.486,374.241 137.695 C 374.062 136.911,373.124 134.323,372.446 132.743 C 372.225 132.228,372.045 131.676,372.045 131.517 C 372.045 131.249,371.400 129.646,370.385 127.390 C 370.153 126.875,369.963 126.354,369.963 126.233 C 369.963 126.112,369.681 125.396,369.336 124.642 C 368.611 123.056,368.128 121.963,367.417 120.297 C 366.111 117.236,365.517 115.987,362.321 109.591 C 358.627 102.199,356.908 98.882,355.922 97.249 C 355.577 96.677,354.896 95.472,354.409 94.572 C 353.923 93.673,352.922 92.000,352.184 90.855 C 348.288 84.803,347.260 83.241,345.921 81.338 C 344.465 79.270,343.175 76.921,342.760 75.584 C 342.641 75.200,342.323 74.651,342.052 74.365 C 341.192 73.452,340.520 72.565,340.519 72.339 C 340.518 72.218,340.050 71.610,339.478 70.987 C 338.288 69.691,337.959 66.436,338.877 65.035 C 339.118 64.668,339.405 63.368,339.515 62.146 C 339.626 60.925,339.897 59.662,340.118 59.339 C 340.339 59.016,340.520 58.090,340.520 57.281 C 340.520 56.342,340.695 55.616,341.002 55.277 C 341.266 54.985,341.553 54.104,341.639 53.321 C 341.726 52.537,341.925 51.812,342.082 51.710 C 342.239 51.608,342.485 50.899,342.627 50.134 C 342.770 49.369,343.091 48.540,343.340 48.291 C 343.588 48.042,343.792 47.380,343.792 46.819 C 343.792 46.258,343.904 45.799,344.041 45.799 C 344.343 45.799,344.981 44.463,344.981 43.831 C 344.981 43.582,345.182 43.177,345.428 42.931 C 345.673 42.686,345.874 42.215,345.874 41.884 C 345.874 41.554,346.141 40.943,346.468 40.527 C 346.796 40.111,347.063 39.538,347.063 39.253 C 347.063 38.968,347.264 38.568,347.509 38.364 C 347.755 38.161,347.955 37.797,347.955 37.557 C 347.955 37.317,348.223 36.780,348.550 36.364 C 348.877 35.948,349.145 35.358,349.145 35.053 C 349.145 34.748,349.263 34.498,349.406 34.498 C 349.550 34.498,349.843 34.063,350.058 33.532 C 350.273 33.000,350.623 32.458,350.838 32.327 C 351.052 32.196,351.227 31.849,351.227 31.555 C 351.227 31.262,351.494 30.779,351.822 30.483 C 352.149 30.187,352.416 29.779,352.416 29.577 C 352.416 29.374,352.617 29.132,352.862 29.037 C 353.108 28.943,353.309 28.682,353.309 28.457 C 353.309 28.232,353.576 27.805,353.903 27.509 C 354.230 27.213,354.498 26.791,354.498 26.571 C 354.498 26.351,354.614 26.171,354.755 26.171 C 354.896 26.171,355.398 25.602,355.870 24.907 C 356.342 24.212,356.862 23.481,357.026 23.283 C 357.456 22.762,358.959 22.799,358.959 23.331 M262.602 249.528 C 263.993 249.672,268.893 249.925,273.493 250.092 C 278.302 250.266,282.220 250.538,282.712 250.733 C 283.183 250.920,285.911 251.176,288.773 251.302 C 291.636 251.428,294.379 251.669,294.870 251.838 C 295.361 252.007,297.238 252.212,299.041 252.294 C 300.875 252.377,302.841 252.640,303.502 252.891 C 304.152 253.138,305.781 253.394,307.121 253.460 C 308.461 253.526,309.733 253.722,309.946 253.895 C 310.160 254.068,311.335 254.307,312.557 254.428 C 313.780 254.548,315.051 254.814,315.383 255.020 C 315.714 255.226,316.702 255.472,317.578 255.568 C 318.454 255.663,319.328 255.872,319.521 256.032 C 319.714 256.192,320.696 256.456,321.704 256.618 C 322.712 256.781,323.778 257.037,324.073 257.189 C 324.368 257.341,325.192 257.554,325.905 257.663 C 326.617 257.772,327.581 258.058,328.046 258.298 C 328.512 258.539,329.200 258.741,329.576 258.746 C 329.952 258.752,330.796 259.015,331.450 259.331 C 332.104 259.647,332.773 259.915,332.937 259.926 C 333.995 260.000,334.937 261.365,334.810 262.641 C 334.732 263.424,334.884 264.525,335.194 265.413 C 336.445 269.006,332.427 273.159,324.461 276.507 C 321.158 277.895,317.482 279.299,315.688 279.857 C 315.033 280.061,313.762 280.459,312.862 280.743 C 305.828 282.961,296.344 285.315,287.138 287.128 C 285.394 287.472,283.383 287.846,279.108 288.625 C 278.693 288.700,277.792 288.053,276.134 286.490 C 274.825 285.256,273.065 283.788,272.221 283.228 C 271.378 282.668,270.612 282.014,270.520 281.774 C 270.428 281.534,270.163 281.338,269.930 281.338 C 269.697 281.338,269.429 281.138,269.335 280.892 C 269.241 280.647,268.968 280.446,268.729 280.446 C 268.491 280.446,268.118 280.277,267.902 280.070 C 267.387 279.578,265.915 278.609,264.981 278.148 C 264.572 277.946,264.004 277.644,263.717 277.478 C 263.431 277.311,262.963 277.038,262.677 276.871 C 262.390 276.704,261.730 276.372,261.210 276.132 C 260.690 275.893,260.189 275.576,260.097 275.428 C 260.006 275.280,259.579 275.070,259.149 274.963 C 258.719 274.855,258.173 274.572,257.935 274.335 C 257.698 274.097,257.195 273.903,256.818 273.903 C 256.441 273.903,255.966 273.703,255.762 273.457 C 255.553 273.206,254.905 273.011,254.275 273.011 C 253.645 273.011,252.997 272.817,252.788 272.565 C 252.584 272.320,251.954 272.119,251.386 272.119 C 250.804 272.119,250.024 271.859,249.598 271.524 C 249.112 271.142,248.391 270.929,247.580 270.929 C 246.821 270.929,246.171 270.752,245.948 270.483 C 245.717 270.205,245.061 270.037,244.202 270.036 C 243.351 270.035,242.453 269.808,241.852 269.441 C 241.106 268.987,240.353 268.848,238.640 268.848 C 237.224 268.848,236.082 268.682,235.532 268.398 C 234.242 267.731,215.226 267.728,213.947 268.395 C 213.463 268.647,212.313 268.845,211.325 268.846 C 210.109 268.847,209.396 268.999,209.023 269.337 C 208.725 269.606,207.782 269.894,206.926 269.976 C 206.071 270.058,205.190 270.306,204.969 270.527 C 204.748 270.748,204.129 270.929,203.594 270.929 C 202.998 270.929,202.411 271.160,202.082 271.524 C 201.726 271.917,201.166 272.119,200.432 272.119 C 199.763 272.119,199.258 272.282,199.163 272.528 C 199.077 272.752,198.541 273.023,197.972 273.130 C 197.403 273.237,196.773 273.521,196.573 273.763 C 196.373 274.004,195.877 274.201,195.470 274.201 C 194.647 274.201,191.822 275.409,191.822 275.760 C 191.822 275.884,191.620 275.985,191.373 275.985 C 191.126 275.985,190.694 276.253,190.414 276.580 C 190.134 276.907,189.744 277.175,189.548 277.175 C 189.351 277.175,188.612 277.614,187.904 278.151 C 187.196 278.688,186.087 279.452,185.438 279.850 C 184.790 280.248,184.025 280.808,183.738 281.094 C 183.452 281.381,182.711 281.937,182.092 282.330 C 180.742 283.187,177.895 285.736,174.929 288.742 L 172.757 290.943 169.724 290.764 C 168.056 290.666,165.822 290.388,164.758 290.147 C 163.695 289.905,161.822 289.561,160.595 289.381 C 154.781 288.529,151.978 288.038,148.401 287.246 C 147.665 287.083,146.033 286.766,144.774 286.542 C 143.516 286.318,142.220 285.992,141.894 285.818 C 141.569 285.644,140.960 285.502,140.541 285.502 C 140.122 285.502,139.009 285.253,138.068 284.948 C 137.127 284.643,135.353 284.094,134.126 283.727 C 132.900 283.361,131.474 282.874,130.959 282.646 C 130.443 282.417,129.757 282.230,129.434 282.230 C 129.110 282.230,128.328 282.021,127.694 281.766 C 125.678 280.952,124.482 280.425,123.717 280.013 C 123.309 279.793,122.364 279.289,121.619 278.894 C 118.242 277.103,113.309 272.977,113.309 271.944 C 113.309 271.736,113.101 271.359,112.848 271.106 C 111.775 270.034,111.276 266.540,111.961 264.902 C 112.691 263.154,117.217 260.398,120.392 259.768 C 120.934 259.660,121.737 259.385,122.176 259.156 C 122.615 258.927,123.349 258.739,123.807 258.738 C 124.265 258.737,125.013 258.543,125.470 258.306 C 125.927 258.070,127.025 257.781,127.909 257.664 C 128.793 257.547,129.947 257.272,130.474 257.053 C 131.000 256.834,131.937 256.650,132.556 256.644 C 133.174 256.639,134.216 256.376,134.870 256.059 C 135.649 255.683,136.708 255.481,137.938 255.475 C 138.971 255.469,140.108 255.302,140.466 255.104 C 140.823 254.906,142.654 254.582,144.535 254.385 C 146.416 254.187,148.558 253.887,149.294 253.717 C 150.030 253.548,151.849 253.403,153.336 253.396 C 154.895 253.388,156.657 253.190,157.499 252.927 C 158.392 252.648,160.691 252.408,163.420 252.308 C 165.874 252.219,168.283 252.009,168.773 251.841 C 169.264 251.674,172.476 251.425,175.911 251.287 C 179.346 251.150,182.642 250.894,183.235 250.719 C 183.829 250.544,188.513 250.267,193.644 250.104 C 198.776 249.941,203.777 249.695,204.758 249.557 C 207.147 249.222,259.388 249.196,262.602 249.528 " stroke="none" fill="#ffffff" fill-rule="evenodd"></path><path id="path4" d="M218.678 16.371 C 217.991 16.507,215.582 16.763,213.324 16.941 C 211.067 17.118,208.818 17.383,208.327 17.529 C 207.836 17.675,206.456 17.882,205.260 17.988 C 204.064 18.094,202.591 18.353,201.988 18.563 C 201.386 18.773,200.156 19.040,199.257 19.155 C 198.357 19.270,197.047 19.558,196.346 19.794 C 195.646 20.030,194.709 20.224,194.265 20.225 C 193.821 20.226,193.074 20.427,192.605 20.671 C 192.137 20.915,191.478 21.115,191.141 21.115 C 190.624 21.115,187.076 22.200,185.576 22.817 C 185.331 22.918,184.595 23.165,183.941 23.367 C 182.277 23.880,180.244 24.632,179.137 25.143 C 178.622 25.381,178.012 25.576,177.781 25.576 C 177.551 25.576,177.103 25.773,176.785 26.013 C 176.468 26.253,175.967 26.454,175.672 26.459 C 175.378 26.464,174.642 26.720,174.037 27.027 C 173.432 27.335,172.468 27.779,171.896 28.015 C 171.323 28.250,170.253 28.735,169.517 29.092 C 168.781 29.449,168.021 29.741,167.828 29.741 C 167.635 29.740,167.301 29.907,167.084 30.112 C 166.868 30.316,165.774 30.952,164.652 31.524 C 161.639 33.062,161.056 33.381,160.892 33.584 C 160.810 33.684,160.409 33.937,160.000 34.144 C 158.691 34.809,157.936 35.282,157.376 35.788 C 157.076 36.060,156.739 36.283,156.628 36.283 C 156.516 36.283,155.759 36.751,154.944 37.323 C 154.130 37.896,153.324 38.364,153.154 38.364 C 152.983 38.364,152.767 38.565,152.673 38.810 C 152.578 39.056,152.336 39.257,152.133 39.257 C 151.931 39.257,151.523 39.524,151.227 39.851 C 150.931 40.178,150.571 40.446,150.428 40.446 C 150.183 40.446,147.673 42.263,146.543 43.259 C 146.257 43.511,145.895 43.717,145.740 43.717 C 145.584 43.717,145.350 43.887,145.219 44.094 C 145.088 44.301,144.513 44.843,143.941 45.298 C 141.555 47.194,140.459 48.136,138.347 50.112 C 134.220 53.971,129.895 58.455,127.141 61.730 C 125.249 63.980,125.173 64.073,124.461 64.988 C 124.134 65.409,123.560 66.094,123.186 66.510 C 122.812 66.926,122.283 67.622,122.011 68.057 C 121.739 68.492,120.874 69.670,120.089 70.674 C 119.304 71.679,118.662 72.639,118.662 72.809 C 118.662 72.979,118.491 73.294,118.283 73.510 C 117.630 74.189,115.269 77.955,113.223 81.585 C 110.254 86.849,107.658 91.919,107.658 92.452 C 107.658 92.637,107.524 92.788,107.361 92.788 C 107.197 92.788,107.063 92.930,107.063 93.104 C 107.063 93.278,106.717 94.181,106.294 95.111 C 105.871 96.042,105.350 97.204,105.136 97.695 C 104.923 98.186,104.466 99.204,104.121 99.958 C 103.777 100.712,103.494 101.523,103.494 101.760 C 103.494 101.997,103.298 102.451,103.058 102.768 C 102.818 103.086,102.617 103.615,102.612 103.945 C 102.606 104.274,102.335 105.044,102.007 105.654 C 101.680 106.264,101.413 107.036,101.413 107.370 C 101.413 107.703,101.227 108.273,101.000 108.635 C 100.773 108.997,100.500 109.790,100.394 110.396 C 100.288 111.003,100.006 111.873,99.768 112.329 C 99.529 112.786,99.334 113.465,99.333 113.839 C 99.332 114.212,99.134 114.989,98.893 115.566 C 98.652 116.143,98.364 117.300,98.252 118.138 C 98.141 118.976,97.871 120.005,97.652 120.425 C 97.432 120.846,97.250 121.658,97.247 122.230 C 97.244 122.803,96.978 124.342,96.654 125.651 C 96.331 126.959,96.065 128.590,96.063 129.274 C 96.061 129.959,95.914 130.896,95.736 131.356 C 95.558 131.817,95.226 134.134,94.998 136.506 C 94.770 138.877,94.449 142.022,94.286 143.494 C 93.904 146.933,93.902 156.689,94.283 160.149 C 94.445 161.621,94.774 164.807,95.014 167.228 C 95.254 169.650,95.539 171.775,95.647 171.950 C 95.755 172.125,95.958 173.396,96.098 174.773 C 96.237 176.151,96.475 177.510,96.627 177.793 C 96.779 178.076,97.038 179.282,97.203 180.472 C 97.368 181.663,97.627 182.797,97.780 182.991 C 97.933 183.186,98.136 183.761,98.232 184.269 C 98.514 185.763,100.345 188.595,102.456 190.805 C 104.370 192.807,104.837 192.868,103.045 190.881 C 98.821 186.198,98.093 184.070,95.891 169.963 C 94.349 160.085,94.356 142.796,95.906 133.383 C 96.149 131.911,96.488 129.836,96.660 128.773 C 97.427 124.028,97.807 122.030,98.076 121.338 C 98.235 120.929,98.463 119.859,98.584 118.959 C 98.704 118.059,98.909 117.190,99.039 117.026 C 99.169 116.862,99.421 115.941,99.598 114.978 C 99.775 114.015,100.038 113.078,100.182 112.896 C 100.325 112.714,100.539 112.034,100.656 111.386 C 100.773 110.737,101.058 109.840,101.289 109.393 C 101.521 108.946,101.710 108.359,101.710 108.089 C 101.710 107.820,101.893 107.177,102.116 106.662 C 102.339 106.147,102.891 104.721,103.343 103.494 C 103.794 102.268,104.366 100.796,104.613 100.223 C 104.860 99.651,105.231 98.781,105.439 98.290 C 107.385 93.689,112.217 83.954,113.000 83.056 C 113.174 82.856,113.452 82.388,113.617 82.015 C 113.928 81.316,114.497 80.342,116.283 77.464 C 116.855 76.541,117.458 75.563,117.623 75.291 C 118.959 73.081,121.733 69.153,123.641 66.766 C 127.968 61.354,129.371 59.792,135.019 54.104 C 138.788 50.307,141.878 47.521,144.833 45.256 C 147.204 43.437,149.347 41.777,149.593 41.567 C 150.223 41.031,156.383 36.987,161.190 33.956 C 161.900 33.508,163.581 32.590,165.502 31.601 C 165.993 31.349,166.595 31.027,166.840 30.886 C 167.086 30.746,167.621 30.490,168.030 30.318 C 168.439 30.147,169.375 29.733,170.112 29.398 C 170.848 29.064,171.851 28.617,172.342 28.405 C 172.833 28.193,173.851 27.737,174.605 27.393 C 175.359 27.048,176.162 26.762,176.389 26.756 C 176.617 26.751,177.063 26.550,177.380 26.310 C 177.698 26.070,178.200 25.874,178.497 25.874 C 178.793 25.874,179.535 25.606,180.145 25.279 C 180.756 24.952,181.550 24.684,181.911 24.684 C 182.272 24.684,182.648 24.554,182.746 24.395 C 182.844 24.236,183.488 23.962,184.176 23.787 C 184.864 23.613,185.695 23.340,186.022 23.181 C 186.349 23.023,187.353 22.688,188.253 22.438 C 189.152 22.189,190.825 21.715,191.970 21.385 C 193.115 21.056,194.829 20.661,195.778 20.507 C 196.727 20.353,197.741 20.100,198.031 19.945 C 198.321 19.789,199.285 19.576,200.172 19.471 C 201.059 19.366,202.387 19.100,203.123 18.879 C 203.859 18.659,205.588 18.387,206.966 18.275 C 208.344 18.162,209.883 17.946,210.386 17.794 C 211.396 17.490,217.327 17.032,223.860 16.753 C 231.194 16.440,244.902 17.617,248.922 18.905 C 249.658 19.141,250.606 19.333,251.028 19.332 C 251.450 19.332,252.655 19.581,253.705 19.887 C 254.754 20.192,256.216 20.599,256.952 20.791 C 259.905 21.561,262.438 22.408,264.270 23.238 C 264.943 23.543,265.634 23.792,265.808 23.792 C 265.981 23.792,266.502 23.980,266.965 24.211 C 267.428 24.442,268.543 24.930,269.442 25.296 C 270.894 25.886,272.805 26.737,276.729 28.538 C 279.759 29.930,284.700 32.510,285.151 32.937 C 285.367 33.141,285.663 33.309,285.809 33.309 C 285.955 33.309,287.155 34.045,288.476 34.944 C 289.797 35.844,290.938 36.580,291.011 36.580 C 291.084 36.580,292.066 37.283,293.194 38.141 C 294.322 39.000,295.604 39.962,296.043 40.279 C 296.481 40.596,297.133 41.095,297.491 41.389 C 298.324 42.072,298.495 42.202,299.926 43.248 C 300.580 43.727,301.348 44.329,301.632 44.587 C 302.606 45.470,303.199 45.975,304.820 47.299 C 309.572 51.180,318.832 60.432,321.386 63.852 C 321.851 64.473,322.376 65.115,322.553 65.279 C 322.731 65.442,323.400 66.245,324.040 67.063 C 324.681 67.881,325.350 68.684,325.527 68.848 C 325.705 69.011,326.500 70.048,327.295 71.152 C 328.089 72.257,328.847 73.160,328.979 73.160 C 329.111 73.160,329.219 73.344,329.219 73.570 C 329.219 73.795,329.411 74.139,329.646 74.334 C 330.044 74.663,333.744 79.948,334.435 81.173 C 334.605 81.475,334.935 81.950,335.167 82.230 C 335.625 82.782,336.116 83.586,336.711 84.758 C 336.918 85.167,337.258 85.609,337.466 85.740 C 337.674 85.870,337.844 86.112,337.844 86.277 C 337.844 86.519,339.098 88.808,341.411 92.788 C 341.554 93.033,342.123 94.104,342.676 95.167 C 343.229 96.230,343.829 97.368,344.011 97.695 C 344.744 99.017,347.658 105.202,347.658 105.435 C 347.658 105.707,348.635 107.919,349.317 109.191 C 349.549 109.625,349.744 110.227,349.749 110.529 C 349.754 110.831,349.955 111.338,350.195 111.655 C 350.435 111.973,350.632 112.421,350.632 112.651 C 350.632 112.882,350.818 113.492,351.046 114.007 C 351.763 115.631,353.034 119.566,353.797 122.528 C 354.029 123.428,354.344 124.389,354.498 124.665 C 354.651 124.940,354.907 125.978,355.067 126.972 C 355.227 127.965,355.444 128.917,355.549 129.087 C 355.746 129.405,356.395 132.795,356.913 136.208 C 357.074 137.271,357.433 139.346,357.711 140.818 C 358.353 144.224,358.432 160.758,357.813 162.218 C 357.608 162.701,357.308 164.151,357.146 165.438 C 356.985 166.726,356.735 168.003,356.590 168.276 C 356.446 168.550,356.114 169.643,355.851 170.706 C 354.931 174.440,354.772 174.952,354.339 175.569 C 354.100 175.912,353.903 176.369,353.903 176.586 C 353.903 177.052,351.642 180.941,350.146 183.048 C 348.024 186.035,345.310 189.002,342.454 191.457 C 340.813 192.867,340.757 192.910,339.480 193.753 C 338.009 194.724,337.444 195.055,336.458 195.524 C 335.942 195.769,335.473 196.074,335.418 196.202 C 335.293 196.485,327.769 200.166,324.312 201.636 C 323.494 201.983,322.424 202.439,321.933 202.649 C 320.860 203.108,319.423 203.624,317.630 204.196 C 316.900 204.429,316.170 204.752,316.010 204.912 C 315.849 205.073,315.376 205.207,314.959 205.211 C 314.542 205.215,313.617 205.482,312.904 205.806 C 312.191 206.129,311.281 206.394,310.882 206.394 C 310.483 206.394,309.795 206.579,309.353 206.805 C 308.912 207.031,307.948 207.314,307.212 207.435 C 306.476 207.555,305.512 207.839,305.071 208.065 C 304.629 208.291,303.855 208.476,303.351 208.476 C 302.847 208.476,301.990 208.661,301.447 208.888 C 300.904 209.115,299.871 209.387,299.152 209.492 C 298.432 209.597,297.175 209.871,296.357 210.100 C 294.812 210.532,292.761 210.973,289.963 211.473 C 289.063 211.634,287.457 211.956,286.394 212.189 C 285.331 212.422,283.658 212.700,282.677 212.807 C 281.695 212.914,280.089 213.186,279.108 213.411 C 278.126 213.636,276.615 213.822,275.750 213.825 C 274.884 213.827,273.166 214.038,271.932 214.292 C 270.698 214.547,268.194 214.873,266.368 215.017 C 264.542 215.160,262.045 215.416,260.818 215.585 C 259.591 215.754,256.647 216.028,254.275 216.195 C 251.903 216.362,248.691 216.624,247.138 216.777 C 237.893 217.685,195.762 217.502,190.424 216.530 C 189.574 216.376,187.098 216.163,184.923 216.057 C 182.747 215.952,179.762 215.684,178.290 215.462 C 176.818 215.241,174.543 214.978,173.234 214.879 C 171.926 214.780,170.052 214.505,169.071 214.269 C 168.089 214.032,166.549 213.836,165.649 213.834 C 164.748 213.831,163.543 213.691,162.972 213.522 C 162.401 213.353,160.595 213.019,158.959 212.780 C 157.323 212.540,155.249 212.204,154.349 212.032 C 153.450 211.860,151.978 211.579,151.078 211.408 C 150.178 211.237,149.108 211.021,148.699 210.928 C 148.045 210.780,148.003 210.816,148.348 211.234 C 148.577 211.512,149.443 211.790,150.430 211.902 C 151.359 212.007,152.922 212.282,153.903 212.511 C 154.885 212.741,156.625 213.052,157.770 213.203 C 158.914 213.354,160.721 213.620,161.784 213.794 C 164.927 214.309,167.952 214.729,171.747 215.176 C 173.710 215.408,175.918 215.724,176.654 215.880 C 177.390 216.035,179.732 216.248,181.859 216.354 C 183.985 216.459,186.394 216.668,187.212 216.817 C 188.030 216.966,192.112 217.221,196.283 217.384 C 200.454 217.547,207.620 217.839,212.207 218.034 C 220.681 218.395,250.231 217.526,253.532 216.820 C 254.186 216.680,256.461 216.476,258.587 216.366 C 260.714 216.256,263.037 216.037,263.750 215.881 C 264.463 215.724,266.939 215.397,269.252 215.154 C 273.773 214.678,276.782 214.291,279.851 213.790 C 280.914 213.617,282.771 213.353,283.976 213.204 C 285.182 213.055,286.854 212.743,287.694 212.511 C 288.533 212.280,289.987 212.004,290.925 211.898 C 291.863 211.792,292.699 211.594,292.783 211.458 C 292.867 211.322,293.772 211.114,294.795 210.996 C 295.818 210.878,296.989 210.648,297.398 210.485 C 297.807 210.321,298.944 210.009,299.926 209.791 C 304.539 208.764,305.840 208.435,306.338 208.169 C 306.634 208.010,307.151 207.881,307.489 207.881 C 307.826 207.881,308.872 207.632,309.813 207.327 C 310.754 207.022,312.528 206.473,313.755 206.107 C 316.011 205.432,318.481 204.556,320.194 203.822 C 320.709 203.601,321.319 203.420,321.549 203.420 C 321.780 203.420,322.228 203.224,322.545 202.983 C 322.863 202.743,323.282 202.543,323.477 202.537 C 324.109 202.520,332.503 198.506,335.019 197.017 C 335.673 196.630,336.540 196.164,336.946 195.982 C 337.351 195.800,337.753 195.559,337.838 195.446 C 338.074 195.135,339.875 193.903,340.095 193.903 C 341.223 193.903,347.188 187.741,351.466 182.156 C 352.003 181.454,354.201 177.468,354.201 177.194 C 354.201 177.030,354.400 176.540,354.643 176.105 C 355.257 175.009,355.986 172.891,356.297 171.301 C 356.440 170.565,356.758 169.428,357.002 168.773 C 357.246 168.119,357.452 167.166,357.459 166.654 C 357.466 166.143,357.654 165.207,357.877 164.573 C 359.119 161.038,359.133 143.015,357.898 138.756 C 357.664 137.950,357.472 136.736,357.472 136.059 C 357.472 135.383,357.254 134.102,356.988 133.214 C 356.723 132.325,356.397 130.862,356.264 129.963 C 356.004 128.194,355.291 125.298,354.763 123.866 C 354.582 123.375,354.325 122.439,354.191 121.784 C 353.916 120.438,353.149 118.078,352.533 116.684 C 352.305 116.168,352.119 115.586,352.119 115.390 C 352.119 115.194,351.924 114.612,351.686 114.097 C 351.166 112.971,350.404 110.897,349.949 109.368 C 349.766 108.755,349.521 108.253,349.405 108.253 C 349.288 108.253,349.100 107.818,348.987 107.286 C 348.874 106.755,348.611 106.119,348.404 105.874 C 348.196 105.628,347.933 105.093,347.820 104.684 C 347.640 104.033,345.942 100.279,345.265 99.033 C 345.132 98.788,344.378 97.316,343.589 95.762 C 342.801 94.208,341.989 92.760,341.784 92.544 C 341.580 92.328,341.413 91.969,341.413 91.747 C 341.413 91.525,341.244 91.167,341.037 90.951 C 340.831 90.734,340.496 90.223,340.293 89.814 C 339.557 88.330,338.060 85.789,337.512 85.093 C 337.204 84.701,336.952 84.198,336.952 83.975 C 336.952 83.751,336.839 83.569,336.702 83.569 C 336.565 83.569,336.296 83.268,336.104 82.900 C 335.912 82.532,335.523 81.888,335.238 81.470 C 334.954 81.052,334.320 80.070,333.829 79.287 C 332.838 77.707,330.475 74.418,329.892 73.808 C 329.686 73.592,329.517 73.320,329.517 73.205 C 329.517 73.089,329.149 72.589,328.699 72.094 C 328.249 71.598,327.517 70.665,327.073 70.020 C 326.628 69.375,325.835 68.379,325.311 67.807 C 324.787 67.234,323.832 66.097,323.189 65.279 C 322.134 63.937,320.170 61.643,318.260 59.521 C 316.428 57.487,311.835 52.892,309.895 51.152 C 308.709 50.089,307.319 48.806,306.806 48.301 C 305.607 47.120,302.521 44.610,302.267 44.610 C 302.161 44.610,301.924 44.423,301.743 44.196 C 301.395 43.760,295.413 39.095,293.383 37.678 C 292.729 37.221,291.257 36.184,290.112 35.375 C 288.967 34.566,287.874 33.903,287.683 33.903 C 287.492 33.903,287.291 33.788,287.237 33.647 C 287.027 33.106,274.077 26.468,273.230 26.468 C 272.986 26.468,272.620 26.268,272.416 26.022 C 272.213 25.777,271.820 25.576,271.545 25.576 C 271.269 25.576,270.783 25.380,270.466 25.140 C 270.148 24.899,269.688 24.694,269.442 24.684 C 269.197 24.674,268.327 24.336,267.509 23.934 C 266.691 23.532,265.822 23.197,265.576 23.190 C 265.331 23.184,264.870 22.982,264.553 22.741 C 264.235 22.501,263.767 22.300,263.512 22.295 C 263.257 22.289,262.513 22.026,261.859 21.710 C 261.204 21.394,260.309 21.131,259.869 21.125 C 259.429 21.120,258.991 20.990,258.897 20.838 C 258.803 20.685,257.959 20.413,257.021 20.233 C 256.083 20.053,255.093 19.782,254.821 19.632 C 254.550 19.481,253.613 19.267,252.740 19.156 C 251.867 19.045,250.903 18.825,250.597 18.667 C 249.737 18.223,244.175 17.361,236.719 16.516 C 232.408 16.027,220.887 15.935,218.678 16.371 M95.541 23.828 C 95.090 24.339,94.218 25.309,93.604 25.984 C 92.989 26.659,92.411 27.446,92.320 27.732 C 92.228 28.019,91.962 28.253,91.727 28.253 C 91.493 28.253,91.301 28.506,91.301 28.816 C 91.301 29.125,91.100 29.456,90.855 29.550 C 90.610 29.644,90.409 29.926,90.409 30.177 C 90.409 30.427,90.175 30.878,89.888 31.179 C 89.602 31.479,89.234 31.936,89.071 32.195 C 88.907 32.453,88.264 33.355,87.641 34.200 C 86.457 35.806,86.619 35.836,88.456 34.349 C 95.156 28.929,95.203 28.924,98.211 33.207 C 98.822 34.077,99.811 35.485,100.410 36.337 C 101.492 37.876,104.398 43.405,105.310 45.660 C 106.370 48.280,107.587 52.196,107.950 54.155 C 108.089 54.906,108.414 56.235,108.674 57.108 C 108.933 57.981,109.150 59.240,109.155 59.905 C 109.161 60.571,109.357 61.985,109.591 63.048 C 110.255 66.067,110.184 72.082,109.473 73.098 C 108.851 73.985,106.202 78.068,105.727 78.871 C 105.562 79.149,104.825 80.354,104.089 81.547 C 103.353 82.741,102.699 83.851,102.636 84.015 C 102.401 84.626,103.728 82.771,104.552 81.338 C 105.023 80.520,105.579 79.674,105.789 79.458 C 105.999 79.242,106.171 78.874,106.171 78.640 C 106.171 78.407,106.283 78.216,106.421 78.216 C 106.558 78.216,106.825 77.876,107.014 77.461 C 107.203 77.046,107.499 76.544,107.671 76.346 C 108.556 75.325,110.172 72.522,110.708 71.078 C 111.042 70.178,111.429 69.398,111.568 69.343 C 111.708 69.289,111.822 69.059,111.822 68.833 C 111.822 68.607,112.089 68.279,112.416 68.104 C 112.743 67.929,113.011 67.599,113.011 67.371 C 113.011 67.143,113.226 66.742,113.490 66.479 C 114.130 65.838,114.105 61.802,113.456 60.874 C 113.193 60.499,113.011 59.576,113.011 58.619 C 113.011 57.532,112.850 56.820,112.522 56.458 C 112.252 56.160,111.965 55.217,111.883 54.361 C 111.801 53.506,111.552 52.625,111.331 52.404 C 111.110 52.183,110.929 51.486,110.929 50.855 C 110.929 50.191,110.725 49.504,110.445 49.223 C 110.178 48.957,109.893 48.146,109.812 47.422 C 109.730 46.699,109.479 45.953,109.253 45.765 C 109.027 45.578,108.760 44.909,108.659 44.279 C 108.558 43.649,108.292 42.981,108.067 42.794 C 107.842 42.608,107.658 42.019,107.658 41.487 C 107.658 40.955,107.461 40.355,107.220 40.155 C 106.979 39.955,106.698 39.346,106.596 38.801 C 106.494 38.256,106.222 37.739,105.993 37.651 C 105.764 37.563,105.576 37.207,105.576 36.859 C 105.576 36.512,105.309 35.887,104.981 35.471 C 104.654 35.056,104.387 34.480,104.387 34.192 C 104.387 33.905,104.198 33.597,103.969 33.509 C 103.739 33.421,103.460 32.938,103.350 32.436 C 103.240 31.935,103.034 31.524,102.892 31.524 C 102.631 31.524,102.021 30.552,101.353 29.071 C 101.151 28.621,100.813 28.253,100.604 28.253 C 100.394 28.253,100.223 28.082,100.223 27.873 C 100.223 27.664,99.989 27.283,99.703 27.027 C 99.416 26.771,98.981 26.254,98.736 25.879 C 98.491 25.503,97.989 24.827,97.621 24.377 C 97.253 23.926,96.952 23.409,96.952 23.228 C 96.952 22.638,96.377 22.882,95.541 23.828 M357.026 23.283 C 356.862 23.481,356.342 24.212,355.870 24.907 C 355.398 25.602,354.896 26.171,354.755 26.171 C 354.614 26.171,354.498 26.351,354.498 26.571 C 354.498 26.791,354.230 27.213,353.903 27.509 C 353.576 27.805,353.309 28.232,353.309 28.457 C 353.309 28.682,353.108 28.943,352.862 29.037 C 352.617 29.132,352.416 29.374,352.416 29.577 C 352.416 29.779,352.149 30.187,351.822 30.483 C 351.494 30.779,351.227 31.262,351.227 31.555 C 351.227 31.849,351.052 32.196,350.838 32.327 C 350.623 32.458,350.273 33.000,350.058 33.532 C 349.843 34.063,349.550 34.498,349.406 34.498 C 349.263 34.498,349.145 34.748,349.145 35.053 C 349.145 35.358,348.877 35.948,348.550 36.364 C 348.223 36.780,347.955 37.317,347.955 37.557 C 347.955 37.797,347.755 38.161,347.509 38.364 C 347.264 38.568,347.063 38.968,347.063 39.253 C 347.063 39.538,346.796 40.111,346.468 40.527 C 346.141 40.943,345.874 41.554,345.874 41.884 C 345.874 42.215,345.673 42.686,345.428 42.931 C 345.182 43.177,344.981 43.582,344.981 43.831 C 344.981 44.463,344.343 45.799,344.041 45.799 C 343.904 45.799,343.792 46.258,343.792 46.819 C 343.792 47.380,343.588 48.042,343.340 48.291 C 343.091 48.540,342.770 49.369,342.627 50.134 C 342.485 50.899,342.239 51.608,342.082 51.710 C 341.925 51.812,341.726 52.537,341.639 53.321 C 341.553 54.104,341.266 54.985,341.002 55.277 C 340.695 55.616,340.520 56.342,340.520 57.281 C 340.520 58.090,340.339 59.016,340.118 59.339 C 339.897 59.662,339.626 60.925,339.515 62.146 C 339.405 63.368,339.118 64.668,338.877 65.035 C 337.959 66.436,338.288 69.691,339.478 70.987 C 340.050 71.610,340.518 72.218,340.519 72.339 C 340.520 72.565,341.192 73.452,342.052 74.365 C 342.323 74.651,342.641 75.200,342.760 75.584 C 343.176 76.924,344.466 79.271,345.923 81.338 C 347.283 83.267,349.868 87.196,351.951 90.499 C 352.432 91.261,352.879 91.830,352.944 91.765 C 353.010 91.699,352.807 91.267,352.494 90.804 C 352.180 90.341,351.451 89.227,350.874 88.327 C 348.702 84.941,345.890 80.709,345.183 79.762 C 344.174 78.412,343.644 74.157,343.891 69.411 C 344.213 63.243,344.644 59.079,345.118 57.574 C 345.370 56.771,345.577 55.700,345.578 55.194 C 345.579 54.689,345.780 53.892,346.024 53.423 C 346.268 52.955,346.467 52.353,346.465 52.085 C 346.461 51.343,348.703 44.858,349.454 43.441 C 349.590 43.184,350.063 42.238,350.504 41.338 C 351.699 38.904,352.172 38.065,353.236 36.491 C 353.766 35.706,354.201 35.003,354.201 34.929 C 354.201 34.856,354.435 34.550,354.721 34.250 C 355.007 33.950,355.777 32.943,356.431 32.012 C 358.423 29.179,360.018 29.359,363.908 32.855 C 364.094 33.023,364.625 33.428,365.087 33.755 C 365.550 34.082,366.461 34.818,367.112 35.390 C 368.043 36.209,367.870 35.914,366.304 34.010 C 365.209 32.678,364.312 31.369,364.312 31.101 C 364.312 30.833,364.121 30.540,363.887 30.450 C 363.653 30.360,363.314 29.930,363.134 29.493 C 362.592 28.179,362.004 27.275,361.509 26.998 C 361.251 26.854,361.041 26.604,361.041 26.442 C 361.041 26.061,359.814 24.309,359.331 24.000 C 359.126 23.869,358.959 23.568,358.959 23.331 C 358.959 22.799,357.456 22.762,357.026 23.283 M102.087 84.833 C 101.528 85.546,99.279 89.564,99.381 89.666 C 99.437 89.722,100.180 88.574,101.031 87.115 C 102.461 84.663,102.810 83.909,102.087 84.833 M98.908 90.335 C 98.785 90.457,98.496 90.959,98.267 91.450 C 98.037 91.941,97.440 93.060,96.940 93.938 C 96.439 94.816,96.082 95.586,96.144 95.649 C 96.207 95.712,96.631 95.060,97.085 94.201 C 97.539 93.342,98.225 92.071,98.609 91.375 C 99.290 90.143,99.365 89.880,98.908 90.335 M61.909 91.682 C 61.862 93.018,61.946 93.189,63.304 94.507 C 64.934 96.090,66.782 98.826,67.088 100.111 C 67.201 100.581,67.462 101.301,67.669 101.710 C 68.574 103.496,69.068 109.105,68.569 111.935 C 68.313 113.388,68.104 114.960,68.104 115.429 C 68.104 115.899,67.986 116.283,67.842 116.283 C 67.698 116.283,67.425 116.897,67.236 117.648 C 67.047 118.400,66.702 119.304,66.470 119.659 C 66.238 120.013,66.148 120.465,66.270 120.663 C 66.666 121.304,67.696 118.772,68.871 114.267 C 69.816 110.645,69.816 107.730,68.870 103.892 C 67.499 98.332,66.996 97.413,63.293 93.718 C 62.487 92.912,62.169 92.317,62.079 91.443 C 61.961 90.282,61.958 90.286,61.909 91.682 M353.498 92.937 C 354.186 94.111,354.201 94.129,354.201 93.763 C 354.201 93.590,353.925 93.133,353.588 92.747 L 352.976 92.045 353.498 92.937 M354.758 95.242 C 355.353 96.407,356.283 97.762,356.283 97.464 C 356.283 97.109,354.662 94.284,354.456 94.279 C 354.351 94.277,354.487 94.710,354.758 95.242 M93.728 99.974 C 92.886 101.639,92.252 103.057,92.319 103.125 C 92.387 103.193,93.120 101.874,93.949 100.194 C 94.777 98.515,95.411 97.097,95.358 97.043 C 95.304 96.989,94.571 98.308,93.728 99.974 M356.880 98.885 C 356.880 99.048,357.210 99.717,357.613 100.372 C 358.016 101.026,358.346 101.428,358.346 101.264 C 358.346 101.100,358.016 100.431,357.613 99.777 C 357.210 99.123,356.880 98.721,356.880 98.885 M358.364 101.935 C 358.364 102.098,358.565 102.399,358.810 102.602 C 359.059 102.809,359.257 102.841,359.257 102.675 C 359.257 102.511,359.056 102.211,358.810 102.007 C 358.562 101.801,358.364 101.769,358.364 101.935 M359.257 103.297 C 359.257 103.614,361.444 107.652,361.555 107.541 C 361.651 107.445,359.687 103.528,359.397 103.239 C 359.320 103.161,359.257 103.188,359.257 103.297 M91.536 104.473 C 90.738 106.050,88.997 109.812,88.513 111.004 C 87.887 112.544,88.221 112.414,88.894 110.855 C 89.840 108.664,91.324 105.460,91.796 104.589 C 92.047 104.128,92.199 103.698,92.135 103.634 C 92.071 103.570,91.801 103.948,91.536 104.473 M361.672 108.137 C 362.357 109.734,363.572 111.810,363.663 111.539 C 363.727 111.348,363.586 110.966,363.351 110.689 C 363.116 110.412,362.750 109.748,362.538 109.213 C 362.326 108.678,362.019 108.157,361.856 108.056 C 361.692 107.955,361.610 107.992,361.672 108.137 M363.770 112.342 C 363.826 112.465,364.317 113.502,364.861 114.647 C 365.913 116.863,366.598 118.376,367.417 120.297 C 368.128 121.963,368.611 123.056,369.336 124.642 C 369.681 125.396,369.967 126.132,369.973 126.278 C 369.989 126.701,371.131 128.957,371.142 128.588 C 371.155 128.177,370.077 125.552,368.518 122.198 C 368.168 121.444,367.881 120.742,367.881 120.637 C 367.881 120.533,367.492 119.611,367.016 118.588 C 366.541 117.565,365.672 115.691,365.086 114.424 C 364.500 113.156,363.942 112.119,363.844 112.119 C 363.747 112.119,363.714 112.219,363.770 112.342 M87.754 112.714 C 87.740 112.959,87.526 113.548,87.279 114.022 C 87.032 114.496,86.881 114.936,86.945 114.999 C 87.156 115.210,88.073 112.990,87.925 112.626 C 87.832 112.397,87.770 112.428,87.754 112.714 M85.946 117.263 C 85.548 118.278,85.051 119.442,84.843 119.851 C 84.635 120.260,84.464 120.745,84.463 120.929 C 84.461 121.315,83.442 123.795,82.810 124.953 C 82.573 125.387,82.379 125.961,82.379 126.229 C 82.379 126.496,82.112 127.240,81.784 127.881 C 81.457 128.522,81.190 129.325,81.190 129.664 C 81.190 130.003,81.004 130.578,80.777 130.940 C 80.550 131.302,80.277 132.095,80.171 132.701 C 80.065 133.308,79.783 134.178,79.545 134.634 C 79.306 135.091,79.110 135.732,79.108 136.059 C 79.107 136.387,78.783 137.290,78.389 138.067 C 77.994 138.844,77.783 139.480,77.919 139.480 C 78.406 139.480,79.405 137.458,79.407 136.470 C 79.408 135.917,79.675 135.063,80.000 134.572 C 80.325 134.082,80.592 133.272,80.593 132.773 C 80.594 132.274,80.729 131.732,80.894 131.567 C 81.059 131.402,81.378 130.606,81.604 129.797 C 81.830 128.989,82.185 127.859,82.394 127.286 C 83.100 125.350,84.753 121.055,85.833 118.349 C 86.425 116.868,86.855 115.603,86.789 115.538 C 86.724 115.472,86.344 116.249,85.946 117.263 M371.173 129.219 C 371.173 129.383,371.365 129.851,371.599 130.260 C 371.832 130.669,372.024 130.870,372.024 130.706 C 372.024 130.543,371.832 130.074,371.599 129.665 C 371.365 129.257,371.173 129.056,371.173 129.219 M372.063 131.405 C 372.053 131.626,372.229 132.228,372.454 132.743 C 372.680 133.259,373.096 134.324,373.378 135.111 C 373.661 135.898,373.937 136.496,373.993 136.441 C 374.048 136.385,373.783 135.474,373.403 134.415 C 372.443 131.741,372.085 130.937,372.063 131.405 M374.152 137.254 C 374.128 137.812,375.442 140.074,375.790 140.074 C 375.984 140.074,375.658 139.488,375.105 138.842 C 374.875 138.574,374.572 137.971,374.432 137.504 C 374.246 136.883,374.171 136.815,374.152 137.254 M87.041 219.493 C 86.089 219.640,84.818 219.898,84.216 220.065 C 83.615 220.232,82.481 220.369,81.697 220.370 C 80.286 220.372,75.033 221.095,73.309 221.525 C 72.644 221.690,72.442 221.894,72.516 222.323 C 73.347 227.122,73.673 228.577,74.678 231.970 C 74.993 233.033,75.249 234.104,75.248 234.349 C 75.246 234.595,75.426 235.143,75.648 235.567 C 75.869 235.991,76.148 236.861,76.267 237.500 C 76.387 238.139,76.592 238.796,76.724 238.959 C 76.856 239.123,77.106 239.725,77.280 240.297 C 77.933 242.448,78.867 244.917,79.132 245.190 C 79.282 245.345,79.406 245.746,79.407 246.082 C 79.408 246.417,79.675 247.093,80.000 247.584 C 80.325 248.074,80.592 248.694,80.593 248.960 C 80.594 249.226,80.782 249.599,81.010 249.788 C 81.238 249.978,81.512 250.596,81.618 251.163 C 81.724 251.730,81.937 252.193,82.090 252.193 C 82.243 252.193,82.454 252.535,82.558 252.952 C 82.826 254.019,83.251 253.815,85.713 251.439 C 86.905 250.289,88.617 248.752,89.517 248.023 C 90.416 247.295,91.219 246.631,91.301 246.547 C 91.488 246.355,92.697 245.507,95.694 243.466 C 97.839 242.006,98.686 241.469,101.960 239.491 C 102.558 239.130,103.416 238.682,103.866 238.496 C 104.316 238.310,104.684 238.037,104.684 237.889 C 104.684 237.742,104.871 237.621,105.100 237.621 C 105.329 237.621,106.171 237.181,106.970 236.643 C 108.403 235.678,110.880 234.415,116.134 231.970 C 120.352 230.006,123.233 228.641,123.717 228.377 C 123.963 228.243,125.435 227.517,126.989 226.763 C 128.543 226.010,130.015 225.277,130.260 225.134 C 130.506 224.991,131.978 224.229,133.532 223.441 C 135.086 222.652,136.424 221.940,136.506 221.858 C 136.973 221.388,139.120 220.074,139.421 220.074 C 139.617 220.074,139.777 219.941,139.777 219.777 C 139.777 219.311,139.486 219.404,136.983 220.670 C 135.691 221.324,134.280 221.859,133.845 221.859 C 133.411 221.859,132.908 222.006,132.727 222.187 C 132.547 222.368,131.617 222.695,130.661 222.915 C 129.704 223.134,128.387 223.447,127.732 223.610 C 121.645 225.127,107.151 225.680,104.833 224.483 C 104.342 224.230,103.162 223.946,102.210 223.852 C 101.258 223.759,100.321 223.551,100.128 223.392 C 99.935 223.232,99.280 223.009,98.672 222.895 C 98.065 222.782,97.413 222.502,97.223 222.274 C 97.034 222.045,96.594 221.850,96.246 221.839 C 95.898 221.828,94.944 221.428,94.126 220.949 C 91.217 219.247,90.106 219.019,87.041 219.493 M204.758 249.557 C 203.777 249.695,198.776 249.941,193.644 250.104 C 188.513 250.267,183.829 250.544,183.235 250.719 C 182.642 250.894,179.346 251.150,175.911 251.287 C 172.476 251.425,169.264 251.674,168.773 251.841 C 168.283 252.009,165.874 252.219,163.420 252.308 C 160.691 252.408,158.392 252.648,157.499 252.927 C 156.657 253.190,154.895 253.388,153.336 253.396 C 151.849 253.403,150.030 253.548,149.294 253.717 C 148.558 253.887,146.416 254.186,144.535 254.382 C 142.654 254.578,140.848 254.909,140.520 255.117 C 139.990 255.455,140.039 255.478,140.967 255.329 C 141.539 255.237,143.613 254.973,145.576 254.742 C 147.539 254.511,149.747 254.181,150.483 254.009 C 151.219 253.836,152.780 253.692,153.952 253.688 C 155.123 253.684,157.072 253.491,158.283 253.259 C 159.494 253.027,162.082 252.752,164.034 252.647 C 165.986 252.542,169.056 252.270,170.855 252.044 C 172.654 251.817,176.134 251.558,178.587 251.467 C 181.041 251.376,184.186 251.163,185.576 250.993 C 186.967 250.823,191.985 250.554,196.729 250.396 C 201.472 250.238,207.896 249.982,211.004 249.826 C 218.578 249.448,252.729 249.449,258.141 249.828 C 260.513 249.994,266.201 250.254,270.781 250.407 C 275.361 250.559,280.580 250.887,282.379 251.136 C 284.178 251.384,286.788 251.593,288.178 251.600 C 289.569 251.607,291.242 251.741,291.896 251.897 C 292.550 252.053,294.859 252.319,297.027 252.488 C 299.195 252.657,301.805 252.993,302.827 253.234 C 303.848 253.474,305.295 253.673,306.043 253.676 C 306.790 253.678,308.061 253.869,308.868 254.099 C 309.675 254.329,311.138 254.609,312.119 254.720 C 313.145 254.837,314.788 255.338,315.985 255.899 C 317.141 256.442,318.860 256.972,319.851 257.093 C 320.832 257.213,321.997 257.497,322.438 257.726 C 322.880 257.954,323.834 258.141,324.558 258.141 C 325.346 258.141,326.019 258.315,326.233 258.573 C 326.430 258.810,327.216 259.096,327.980 259.209 C 328.743 259.321,329.632 259.595,329.955 259.818 C 330.277 260.041,330.858 260.223,331.246 260.223 C 331.634 260.223,332.291 260.491,332.707 260.818 C 333.123 261.145,333.646 261.413,333.869 261.413 C 334.680 261.413,333.545 263.620,332.014 265.020 C 331.411 265.571,330.699 266.223,330.431 266.468 C 329.667 267.168,326.587 269.442,326.404 269.442 C 326.313 269.442,325.605 269.880,324.830 270.416 C 324.054 270.951,323.086 271.560,322.677 271.769 C 321.044 272.602,320.142 273.111,320.000 273.280 C 319.918 273.378,319.182 273.772,318.364 274.156 C 317.546 274.541,316.677 274.976,316.431 275.123 C 316.186 275.271,315.651 275.526,315.242 275.690 C 314.833 275.855,314.143 276.189,313.709 276.433 C 312.835 276.925,310.616 277.035,310.347 276.599 C 310.252 276.447,309.448 276.110,308.560 275.852 C 307.672 275.594,306.863 275.250,306.763 275.089 C 306.664 274.928,306.218 274.796,305.774 274.796 C 305.329 274.796,304.694 274.606,304.363 274.374 C 304.032 274.142,303.233 273.857,302.587 273.740 C 301.941 273.624,301.261 273.408,301.075 273.262 C 300.890 273.115,300.087 272.813,299.291 272.591 C 298.495 272.368,297.409 272.037,296.877 271.855 C 294.699 271.109,293.908 270.863,292.491 270.490 C 291.673 270.274,290.602 269.960,290.112 269.792 C 285.306 268.143,280.576 267.909,277.641 269.175 C 277.069 269.422,274.660 269.857,269.591 270.628 C 268.446 270.802,266.773 271.085,265.874 271.256 C 264.220 271.570,258.400 272.337,255.553 272.616 C 254.426 272.726,253.823 272.639,253.331 272.294 C 252.960 272.034,252.243 271.822,251.738 271.822 C 251.233 271.822,250.560 271.625,250.243 271.385 C 249.354 270.713,248.736 270.846,249.598 271.524 C 250.024 271.859,250.804 272.119,251.386 272.119 C 251.954 272.119,252.584 272.320,252.788 272.565 C 252.997 272.817,253.645 273.011,254.275 273.011 C 254.905 273.011,255.553 273.206,255.762 273.457 C 255.966 273.703,256.441 273.903,256.818 273.903 C 257.195 273.903,257.698 274.097,257.935 274.335 C 258.173 274.572,258.719 274.855,259.149 274.963 C 259.579 275.070,260.006 275.280,260.097 275.428 C 260.189 275.576,260.690 275.893,261.210 276.132 C 261.730 276.372,262.390 276.704,262.677 276.871 C 262.963 277.038,263.431 277.311,263.717 277.478 C 264.004 277.644,264.572 277.946,264.981 278.148 C 265.915 278.609,267.387 279.578,267.902 280.070 C 268.118 280.277,268.491 280.446,268.729 280.446 C 268.968 280.446,269.241 280.647,269.335 280.892 C 269.429 281.138,269.697 281.338,269.930 281.338 C 270.163 281.338,270.428 281.534,270.520 281.774 C 270.612 282.014,271.378 282.668,272.221 283.228 C 273.065 283.788,274.825 285.256,276.134 286.490 C 277.792 288.053,278.693 288.700,279.108 288.625 C 283.383 287.846,285.394 287.472,287.138 287.128 C 296.344 285.315,305.828 282.961,312.862 280.743 C 313.762 280.459,315.033 280.061,315.688 279.857 C 317.482 279.299,321.158 277.895,324.461 276.507 C 332.427 273.159,336.445 269.006,335.194 265.413 C 334.884 264.525,334.732 263.424,334.810 262.641 C 334.937 261.365,333.995 260.000,332.937 259.926 C 332.773 259.915,332.104 259.647,331.450 259.331 C 330.796 259.015,329.952 258.752,329.576 258.746 C 329.200 258.741,328.512 258.539,328.046 258.298 C 327.581 258.058,326.617 257.772,325.905 257.663 C 325.192 257.554,324.368 257.341,324.073 257.189 C 323.778 257.037,322.712 256.781,321.704 256.618 C 320.696 256.456,319.714 256.192,319.521 256.032 C 319.328 255.872,318.454 255.663,317.578 255.568 C 316.702 255.472,315.714 255.226,315.383 255.020 C 315.051 254.814,313.780 254.548,312.557 254.428 C 311.335 254.307,310.160 254.068,309.946 253.895 C 309.733 253.722,308.461 253.526,307.121 253.460 C 305.781 253.394,304.152 253.138,303.502 252.891 C 302.841 252.640,300.875 252.377,299.041 252.294 C 297.238 252.212,295.361 252.007,294.870 251.838 C 294.379 251.669,291.636 251.428,288.773 251.302 C 285.911 251.176,283.183 250.920,282.712 250.733 C 282.220 250.538,278.302 250.266,273.493 250.092 C 268.893 249.925,263.993 249.672,262.602 249.528 C 259.388 249.196,207.147 249.222,204.758 249.557 M134.870 256.059 C 134.216 256.376,133.181 256.639,132.571 256.644 C 131.961 256.650,130.957 256.845,130.341 257.078 C 129.724 257.311,128.552 257.591,127.736 257.701 C 126.921 257.811,125.890 258.089,125.446 258.319 C 125.002 258.548,124.265 258.737,123.807 258.738 C 123.349 258.739,122.615 258.927,122.176 259.156 C 121.737 259.385,120.934 259.660,120.392 259.768 C 117.217 260.398,112.691 263.154,111.961 264.902 C 111.276 266.540,111.775 270.034,112.848 271.106 C 113.101 271.359,113.309 271.736,113.309 271.944 C 113.309 272.977,118.242 277.103,121.619 278.894 C 122.364 279.289,123.309 279.793,123.717 280.013 C 124.482 280.425,125.678 280.952,127.694 281.766 C 128.328 282.021,129.110 282.230,129.434 282.230 C 129.757 282.230,130.443 282.417,130.959 282.646 C 131.474 282.874,132.900 283.361,134.126 283.727 C 135.353 284.094,137.127 284.643,138.068 284.948 C 139.009 285.253,140.122 285.502,140.541 285.502 C 140.960 285.502,141.569 285.644,141.894 285.818 C 142.220 285.992,143.516 286.321,144.774 286.548 C 147.292 287.003,149.619 287.466,151.673 287.922 C 152.980 288.212,156.106 288.723,160.595 289.381 C 161.822 289.561,163.695 289.905,164.758 290.147 C 165.822 290.388,168.056 290.666,169.724 290.764 L 172.757 290.943 174.929 288.742 C 177.895 285.736,180.742 283.187,182.092 282.330 C 182.711 281.937,183.452 281.381,183.738 281.094 C 184.025 280.808,184.790 280.248,185.438 279.850 C 186.087 279.452,187.196 278.688,187.904 278.151 C 188.612 277.614,189.351 277.175,189.548 277.175 C 189.744 277.175,190.134 276.907,190.414 276.580 C 190.694 276.253,191.126 275.985,191.373 275.985 C 191.620 275.985,191.822 275.884,191.822 275.760 C 191.822 275.409,194.647 274.201,195.470 274.201 C 195.877 274.201,196.373 274.004,196.573 273.763 C 196.773 273.521,197.403 273.237,197.972 273.130 C 198.541 273.023,199.077 272.752,199.163 272.528 C 199.258 272.282,199.763 272.119,200.432 272.119 C 201.166 272.119,201.726 271.917,202.082 271.524 C 202.708 270.832,202.311 270.729,201.469 271.366 C 201.152 271.606,200.541 271.807,200.111 271.812 C 199.681 271.817,199.163 272.022,198.959 272.268 C 198.755 272.513,198.340 272.714,198.037 272.714 C 197.733 272.714,196.932 272.935,196.256 273.205 C 194.989 273.712,192.685 273.610,184.833 272.699 C 183.524 272.547,180.647 272.222,178.439 271.976 C 176.230 271.731,174.036 271.395,173.562 271.230 C 173.087 271.065,172.151 270.926,171.480 270.922 C 170.809 270.918,169.725 270.773,169.071 270.600 C 168.416 270.427,166.757 270.090,165.384 269.851 C 164.011 269.612,162.648 269.289,162.355 269.132 C 161.410 268.626,159.078 268.928,156.431 269.900 C 155.859 270.110,154.387 270.570,153.160 270.923 C 151.933 271.276,150.260 271.809,149.442 272.109 C 148.625 272.409,147.688 272.725,147.361 272.810 C 147.033 272.896,145.829 273.319,144.684 273.750 C 143.539 274.182,142.163 274.647,141.627 274.785 C 141.091 274.922,140.489 275.156,140.289 275.305 C 140.089 275.454,138.922 275.967,137.695 276.446 C 135.036 277.483,132.083 279.009,130.458 280.186 C 129.159 281.128,127.588 281.316,126.995 280.603 C 126.795 280.362,126.177 280.079,125.621 279.975 C 125.065 279.870,124.610 279.675,124.610 279.541 C 124.610 279.407,124.309 279.204,123.941 279.090 C 122.962 278.788,119.148 276.516,118.870 276.070 C 118.739 275.860,118.467 275.688,118.266 275.688 C 116.422 275.688,112.714 269.833,112.714 266.921 L 112.714 264.724 113.979 263.687 C 114.675 263.117,115.606 262.559,116.049 262.448 C 116.491 262.337,117.009 262.059,117.199 261.830 C 117.389 261.600,117.864 261.413,118.253 261.413 C 118.643 261.413,119.461 261.145,120.071 260.818 C 120.681 260.491,121.521 260.223,121.937 260.223 C 122.353 260.223,122.957 260.042,123.280 259.820 C 123.602 259.598,124.590 259.323,125.474 259.209 C 126.358 259.094,127.456 258.807,127.913 258.571 C 128.370 258.335,129.319 258.140,130.022 258.139 C 130.726 258.138,131.642 257.960,132.059 257.742 C 132.476 257.524,133.329 257.263,133.955 257.162 C 134.581 257.060,135.328 256.764,135.615 256.504 C 135.902 256.244,136.990 255.921,138.032 255.786 L 139.926 255.540 137.993 255.512 C 136.645 255.493,135.699 255.659,134.870 256.059 M217.695 267.643 C 215.487 267.741,213.304 267.985,212.843 268.185 C 212.383 268.386,211.484 268.550,210.847 268.550 C 210.209 268.550,209.008 268.818,208.178 269.145 C 207.348 269.472,206.289 269.740,205.825 269.740 C 205.360 269.740,204.820 269.933,204.624 270.168 C 204.429 270.404,203.911 270.651,203.473 270.718 C 202.742 270.830,202.754 270.844,203.622 270.885 C 204.142 270.909,204.748 270.748,204.969 270.527 C 205.190 270.306,206.071 270.058,206.926 269.976 C 207.782 269.894,208.725 269.606,209.023 269.337 C 209.396 268.999,210.109 268.847,211.325 268.846 C 212.313 268.845,213.463 268.647,213.947 268.395 C 215.226 267.728,234.242 267.731,235.532 268.398 C 236.082 268.682,237.224 268.848,238.640 268.848 C 240.353 268.848,241.106 268.987,241.852 269.441 C 242.453 269.808,243.351 270.035,244.202 270.036 C 245.061 270.037,245.717 270.205,245.948 270.483 C 246.181 270.765,246.772 270.913,247.546 270.885 C 248.540 270.849,248.607 270.816,247.895 270.711 C 247.412 270.639,246.746 270.392,246.416 270.160 C 246.086 269.929,245.344 269.739,244.767 269.738 C 244.190 269.737,243.316 269.524,242.825 269.266 C 242.335 269.007,240.775 268.685,239.360 268.550 C 237.944 268.415,236.539 268.177,236.237 268.021 C 235.544 267.664,223.024 267.409,217.695 267.643 M281.537 295.217 C 280.679 296.075,281.370 297.398,282.677 297.398 C 284.181 297.398,284.300 297.147,283.400 295.882 C 282.821 295.070,281.983 294.771,281.537 295.217 " stroke="none" fill="#8aa0e9" fill-rule="evenodd"></path></g></svg>