<?xml version="1.0" standalone="no"?>
<!DOCTYPE svg PUBLIC "-//W3C//DTD SVG 20010904//EN"
 "http://www.w3.org/TR/2001/REC-SVG-20010904/DTD/svg10.dtd">
<svg version="1.0" xmlns="http://www.w3.org/2000/svg"
 width="1366.000000pt" height="768.000000pt" viewBox="0 0 1366.000000 768.000000"
 preserveAspectRatio="xMidYMid meet">

<g transform="translate(0.000000,768.000000) scale(0.100000,-0.100000)"
fill="#000000" stroke="none">
<path d="M6010 5131 c-116 -41 -161 -158 -100 -258 37 -61 138 -93 289 -93
102 0 177 19 222 57 59 50 76 136 39 207 -38 76 -93 97 -265 102 -111 4 -138
2 -185 -15z"/>
<path d="M520 3870 l0 -940 230 0 230 0 2 685 3 685 73 -328 c41 -180 110
-488 155 -684 l80 -358 246 0 246 0 154 668 c85 367 157 676 162 687 4 11 8
-289 8 -667 l1 -688 235 0 235 0 0 178 c1 173 1 176 17 132 51 -147 193 -249
390 -280 159 -26 317 45 435 193 21 27 38 46 38 43 0 -3 -18 -73 -39 -155
l-39 -151 36 -9 c207 -54 436 -110 439 -107 2 2 71 268 154 592 82 324 152
594 155 599 2 6 2 -27 0 -73 -11 -230 42 -472 135 -612 102 -151 330 -250 512
-222 152 24 242 86 302 204 l35 71 0 -84 c0 -124 -23 -192 -84 -255 -39 -40
-64 -56 -105 -68 -73 -21 -253 -21 -340 0 -90 22 -216 84 -274 134 l-47 42 0
-211 0 -211 52 -29 c144 -83 363 -126 593 -118 323 12 514 106 610 301 70 141
70 137 70 946 l0 725 -242 3 -243 2 0 -132 -1 -133 -18 50 c-39 110 -111 188
-210 227 -83 33 -268 33 -364 0 -130 -46 -231 -134 -294 -260 -15 -31 -21 -38
-17 -19 14 61 25 55 -236 123 -135 35 -247 60 -251 56 -3 -4 -54 -198 -113
-432 -118 -468 -140 -530 -207 -576 -83 -57 -222 -38 -269 38 -34 52 -22 120
105 616 64 250 115 455 113 456 -7 6 -490 127 -493 124 -3 -3 -284 -1100 -298
-1163 -3 -11 -5 283 -6 653 l-1 672 -378 0 -378 0 -139 -650 c-77 -357 -143
-646 -146 -642 -3 4 -62 296 -130 650 l-123 642 -383 0 -383 0 0 -940z m4490
170 c89 -45 123 -128 123 -295 0 -100 -3 -129 -22 -177 -46 -118 -158 -172
-284 -137 -52 14 -100 60 -128 121 -22 48 -24 67 -24 193 0 122 3 146 22 187
24 53 63 94 108 114 47 21 159 18 205 -6z"/>
<path d="M6003 4396 l-173 -273 0 -116 0 -117 95 0 95 0 0 86 0 87 79 124 80
124 33 -53 c134 -210 128 -197 128 -286 l0 -82 95 0 95 0 0 113 0 113 -172
277 c-95 152 -175 276 -178 276 -3 0 -83 -123 -177 -273z"/>
<path d="M9556 4534 c-136 -27 -279 -85 -385 -156 -98 -66 -91 -43 -91 -285 0
-117 4 -213 8 -213 5 0 17 10 28 21 29 33 132 103 201 138 162 81 370 109 465
62 61 -29 88 -63 88 -111 0 -80 -32 -97 -335 -180 -219 -60 -316 -103 -394
-176 -193 -178 -171 -522 41 -664 74 -49 140 -71 238 -77 188 -13 361 78 450
237 l31 55 -6 -127 -7 -128 226 0 226 0 0 578 c0 317 -5 607 -10 644 -16 108
-46 175 -107 236 -64 65 -182 123 -295 146 -94 19 -276 20 -372 0z m310 -1034
c-32 -180 -116 -280 -238 -280 -86 0 -152 69 -145 151 7 82 44 113 246 203 68
30 129 60 135 66 18 19 19 -40 2 -140z"/>
<path d="M12350 4531 c-164 -36 -290 -91 -402 -174 l-58 -42 0 -218 0 -217 83
63 c206 156 480 226 618 156 108 -54 118 -154 20 -204 -26 -12 -138 -48 -251
-79 -320 -88 -427 -150 -495 -289 -107 -220 -40 -472 153 -575 148 -79 307
-82 460 -10 78 37 166 122 204 198 l28 55 -5 -95 c-3 -52 -8 -112 -11 -132
l-4 -38 225 0 225 0 0 608 c0 647 -2 679 -50 773 -44 85 -157 166 -295 209
-100 32 -325 38 -445 11z m334 -943 c-23 -239 -111 -368 -251 -368 -89 0 -143
55 -143 146 0 76 29 104 178 175 70 32 147 70 172 83 25 14 46 25 47 25 2 1 0
-27 -3 -61z"/>
<path d="M11396 4524 c-63 -20 -112 -51 -158 -102 -47 -52 -74 -105 -109 -212
l-28 -85 0 193 -1 192 -237 -2 -238 -3 -3 -787 -2 -788 260 0 260 0 0 358 c0
383 6 454 47 540 54 115 141 173 270 180 74 4 88 2 137 -22 30 -15 66 -40 80
-57 14 -16 27 -29 30 -29 3 0 6 130 6 290 0 334 9 306 -110 334 -80 19 -140
19 -204 0z"/>
<path d="M6644 4483 c5 -21 318 -1215 397 -1516 l10 -37 281 2 282 3 80 522
c45 288 83 523 86 523 3 0 37 -235 76 -523 l70 -522 285 -3 284 -2 224 767
c124 423 227 778 229 791 l4 22 -254 0 -254 0 -102 -542 c-57 -299 -106 -551
-110 -561 -4 -11 -37 232 -72 540 l-65 558 -290 3 c-159 1 -292 -1 -296 -5 -4
-5 -47 -256 -95 -560 -49 -304 -90 -550 -92 -548 -2 2 -43 253 -91 557 l-87
553 -253 3 -253 2 6 -27z"/>
<path d="M5830 3543 l0 -208 172 -287 c95 -159 175 -288 178 -288 3 0 83 129
178 288 l172 287 0 208 0 207 -95 0 -95 0 0 -177 0 -177 -76 -128 c-42 -70
-80 -128 -84 -128 -4 0 -42 58 -84 128 l-76 128 0 177 0 177 -95 0 -95 0 0
-207z"/>
</g>
</svg>
